<?xml version="1.0" standalone="no"?>
<!DOCTYPE svg PUBLIC "-//W3C//DTD SVG 20010904//EN"
 "http://www.w3.org/TR/2001/REC-SVG-20010904/DTD/svg10.dtd">
<svg version="1.0" xmlns="http://www.w3.org/2000/svg"
 width="744.000000pt" height="744.000000pt" viewBox="0 0 744.000000 744.000000"
 preserveAspectRatio="xMidYMid meet">
<metadata>
Created by potrace 1.14, written by Peter Selinger 2001-2017
</metadata>
<g transform="translate(0.000000,744.000000) scale(0.100000,-0.100000)"
fill="#000000" stroke="none">
<path d="M3488 6315 c-2 -1 -23 -5 -48 -8 -165 -20 -326 -77 -424 -152 -32
-24 -103 -55 -141 -60 -11 -2 -20 -4 -20 -5 0 -1 -11 -3 -25 -4 -14 -2 -54 -8
-90 -14 -98 -18 -121 -21 -175 -28 -27 -3 -57 -12 -66 -20 -8 -8 -21 -14 -27
-14 -6 0 -74 -20 -149 -44 -173 -56 -427 -180 -492 -241 -25 -23 -82 -64 -126
-91 -43 -26 -97 -67 -120 -90 -22 -23 -66 -58 -97 -78 -31 -20 -61 -42 -65
-49 -7 -12 -80 -67 -153 -117 -20 -14 -43 -32 -119 -95 -13 -11 -59 -54 -101
-95 -43 -41 -102 -98 -131 -125 -35 -33 -70 -79 -99 -135 -25 -46 -69 -119
-98 -162 -29 -43 -60 -100 -68 -126 -9 -26 -22 -54 -29 -62 -16 -20 -62 -109
-70 -138 -4 -12 -25 -53 -47 -90 -40 -64 -82 -162 -71 -162 3 0 1 -6 -5 -12
-14 -18 -24 -73 -38 -203 -3 -27 -18 -104 -35 -169 -16 -65 -29 -133 -29 -150
0 -17 -7 -44 -15 -60 -19 -36 -19 -50 0 -66 23 -19 55 -3 55 28 0 15 -4 33 -9
41 -18 28 96 99 149 93 8 -1 42 5 75 12 33 8 87 20 120 26 33 7 65 15 70 18 6
4 15 7 21 8 6 1 29 13 52 27 22 15 53 29 69 33 15 4 66 27 113 51 51 26 103
45 131 48 25 2 70 16 100 29 30 14 66 27 81 30 15 2 33 8 38 11 14 8 45 13
133 20 38 3 87 9 109 14 22 5 46 7 52 5 7 -3 12 -68 13 -207 2 -111 5 -227 8
-257 11 -142 19 -214 29 -270 2 -14 8 -47 12 -75 4 -27 9 -54 10 -60 2 -5 10
-41 18 -80 8 -38 25 -101 36 -140 12 -38 25 -83 30 -100 26 -94 81 -227 149
-365 59 -117 71 -139 145 -258 28 -46 56 -91 61 -100 15 -25 98 -135 111 -147
6 -5 28 -32 50 -60 40 -51 287 -302 315 -320 57 -36 138 -103 131 -109 -4 -4
-2 -6 3 -4 17 5 75 -24 68 -35 -4 -6 -1 -7 7 -2 8 5 18 1 27 -10 7 -11 13 -16
13 -12 0 4 9 3 21 -3 13 -7 18 -17 15 -27 -5 -12 -3 -13 7 -5 20 17 94 -31 95
-61 0 -13 -6 -24 -14 -24 -16 0 -15 27 1 40 6 5 4 7 -5 4 -8 -2 -14 -10 -12
-17 2 -8 -3 -10 -13 -6 -9 3 -19 6 -21 6 -2 0 -4 4 -4 10 0 5 5 9 11 7 6 -1
14 5 16 13 4 12 3 12 -5 2 -5 -8 -13 -13 -18 -12 -19 3 -14 -19 7 -31 l23 -12
-23 -18 c-29 -24 -36 -24 -38 1 -1 11 2 20 8 20 5 0 9 -5 9 -11 0 -5 5 -7 11
-3 18 11 -18 27 -37 16 -9 -5 -15 -12 -15 -15 3 -20 0 -28 -9 -22 -5 3 -8 11
-6 18 1 7 1 8 -2 4 -2 -4 -10 -3 -17 3 -9 8 -20 8 -31 2 -13 -7 -13 -10 -2
-14 9 -4 13 -19 12 -44 -3 -51 -3 -51 -14 -34 -5 8 -7 24 -4 35 l6 20 -16 -20
c-8 -11 -16 -15 -16 -8 0 6 7 19 16 27 8 9 11 16 6 16 -5 0 -17 -11 -26 -25
-9 -14 -12 -25 -7 -25 5 0 17 -7 25 -16 17 -16 21 -35 9 -33 -23 4 -35 -3 -29
-16 8 -22 -12 -18 -38 8 -20 20 -26 22 -42 10 -9 -7 -14 -16 -10 -20 4 -4 11
-1 16 7 13 21 38 -4 36 -38 -2 -34 -13 -52 -32 -52 -8 0 -13 4 -10 8 2 4 -4
13 -15 20 -23 14 -25 7 -4 -15 19 -18 11 -34 -13 -26 -13 4 -13 2 3 -10 21
-16 40 -13 29 5 -5 7 -2 9 8 6 8 -4 20 2 27 13 6 11 16 17 21 14 6 -3 1 -16
-10 -27 -23 -25 -25 -34 -9 -43 6 -4 9 0 7 10 -2 10 3 20 11 23 8 3 11 0 7 -7
-4 -6 -2 -11 4 -11 7 0 9 8 4 22 -6 20 -5 21 9 9 9 -7 14 -17 11 -22 -5 -9 8
-13 39 -10 9 1 17 -3 17 -8 0 -13 -28 -17 -60 -8 -8 2 -12 2 -7 0 13 -8 -3
-22 -18 -16 -8 3 -15 -1 -15 -8 0 -7 3 -9 7 -6 3 4 12 2 18 -3 9 -8 23 -5 48
10 30 18 35 19 41 5 3 -8 3 -21 0 -28 -3 -8 2 -20 11 -27 10 -8 15 -9 15 -1 0
6 -4 11 -10 11 -18 0 -10 16 9 17 13 1 18 -4 16 -20 -1 -12 -3 -27 -4 -34 0
-6 -11 -9 -23 -7 -21 4 -21 4 -3 -5 23 -10 35 -5 35 14 0 8 5 17 12 21 8 5 9
2 5 -9 -3 -9 -3 -16 1 -16 22 4 32 -2 26 -13 -5 -7 3 -5 16 4 14 9 24 20 23
25 -1 5 7 14 18 21 20 13 26 3 8 -15 -8 -8 -8 -16 0 -30 6 -10 11 -12 11 -5 0
6 7 12 17 12 15 0 15 -1 0 -18 -12 -13 -13 -21 -6 -32 9 -13 10 -12 5 2 -3 11
4 25 20 37 14 11 23 25 19 30 -3 6 0 8 8 5 22 -8 16 -31 -11 -44 -24 -10 -24
-11 -6 -25 16 -12 21 -12 30 0 6 8 15 11 20 7 4 -4 2 1 -5 11 -12 15 -11 17
10 15 17 -2 23 2 21 13 -1 9 5 16 13 16 21 0 19 -11 -11 -46 -14 -17 -23 -37
-21 -43 4 -8 6 -7 6 4 1 10 7 15 19 11 10 -2 26 5 36 16 13 15 15 21 6 21 -17
0 -4 13 15 16 18 3 18 -1 4 -29 -7 -12 -8 -18 -3 -14 4 4 14 -3 21 -15 l14
-23 -7 25 -7 25 24 -20 c16 -14 19 -15 11 -3 -12 15 -11 17 7 15 13 -1 19 -6
17 -14 -3 -7 1 -10 8 -7 9 4 12 -5 11 -30 -2 -20 1 -33 6 -31 4 3 5 13 2 22
-4 11 -2 14 5 9 6 -3 16 3 22 15 7 11 14 18 17 16 2 -3 0 -15 -7 -26 -6 -12
-8 -21 -6 -21 3 0 11 10 17 22 9 17 8 24 -5 34 -10 7 -13 15 -7 18 5 4 12 2
16 -4 4 -6 10 -8 14 -5 5 2 7 -7 5 -20 -1 -14 1 -23 6 -20 5 3 11 -1 13 -7 3
-7 3 4 1 26 -4 34 -2 37 11 26 8 -7 15 -9 15 -4 0 4 6 -1 14 -12 17 -23 12
-32 -9 -14 -19 16 -20 4 -1 -15 11 -12 17 -11 34 5 14 13 22 15 25 7 4 -11
-16 -38 -25 -34 -2 1 0 -2 5 -8 5 -6 12 -3 19 9 8 15 12 16 20 5 8 -11 9 -11
5 2 -6 18 10 39 30 39 7 0 13 -4 13 -10 0 -5 -5 -9 -11 -7 -6 1 -12 -8 -14
-21 -1 -12 2 -22 7 -22 4 0 8 7 8 16 0 8 5 12 11 9 6 -4 8 -13 5 -21 -7 -19
12 -28 30 -13 8 7 12 20 9 33 -5 16 1 14 23 -12 27 -31 31 -32 46 -17 9 9 14
21 11 26 -13 20 18 7 42 -19 l27 -27 -17 28 c-16 25 -16 28 -2 33 9 4 19 4 22
0 4 -3 1 -6 -5 -6 -7 0 -9 -7 -5 -17 6 -15 7 -15 13 2 8 23 37 28 44 8 6 -13
9 -13 30 1 21 13 25 14 30 0 3 -8 2 -13 -2 -10 -4 2 -14 1 -21 -3 -9 -6 -4 -9
13 -9 17 0 26 6 26 16 0 8 3 12 7 9 3 -4 12 -2 20 4 10 9 10 15 2 25 -6 8 -16
14 -22 14 -6 0 -4 -6 4 -12 8 -7 12 -12 10 -11 -2 2 -10 -2 -18 -9 -11 -8 -12
-7 -7 6 3 9 1 16 -6 16 -6 0 -9 -4 -6 -8 3 -5 -1 -9 -9 -9 -8 0 -17 7 -19 14
-4 9 -11 11 -23 5 -10 -4 -31 -8 -48 -8 -16 1 -35 -5 -40 -12 -6 -7 -18 -10
-28 -6 -15 5 -15 9 -5 22 9 11 9 13 1 9 -6 -4 -14 -3 -18 3 -4 6 -12 7 -18 4
-7 -4 -9 -4 -5 1 4 4 3 14 -3 22 -8 9 -8 13 -1 13 6 0 9 8 6 18 -5 14 -4 14 5
2 5 -8 14 -11 18 -6 4 4 -2 15 -14 23 -25 17 -30 33 -11 33 6 0 8 -3 5 -7 -4
-3 2 -13 13 -20 15 -11 19 -21 14 -36 -6 -19 -5 -20 10 -8 13 11 19 11 33 0
14 -12 16 -12 11 2 -3 9 -2 22 4 30 8 11 9 11 5 -3 -3 -9 1 -19 9 -22 24 -9
26 -7 14 13 -5 11 -6 22 -2 25 15 9 47 -1 48 -15 1 -8 2 -20 3 -26 0 -7 6 -13
12 -13 6 0 8 9 4 23 -5 17 -4 19 4 7 6 -8 8 -23 5 -34 -5 -14 -3 -16 7 -10 20
12 40 14 33 3 -3 -5 0 -9 5 -9 6 0 11 6 11 14 0 8 4 18 10 21 6 4 9 -3 7 -16
-1 -12 3 -24 9 -26 8 -2 11 11 9 39 -1 24 -1 35 2 26 2 -9 13 -20 24 -23 16
-5 18 -10 8 -21 -7 -8 -7 -14 -1 -14 5 0 15 7 22 16 19 22 50 37 50 24 0 -5
-8 -10 -17 -10 -15 0 -10 -14 5 -16 4 0 15 -4 24 -8 11 -5 23 -2 34 9 36 35
64 49 77 36 9 -10 9 -11 -4 -6 -8 3 -28 -4 -43 -16 -33 -26 -28 -37 7 -14 24
15 28 15 66 -4 49 -25 52 -26 44 -4 -5 12 -2 15 10 10 10 -4 20 0 26 11 6 9
11 12 11 7 0 -6 -5 -16 -12 -23 -6 -6 -9 -15 -5 -18 4 -4 15 4 26 17 14 17 16
26 8 32 -7 5 -1 5 12 2 17 -5 22 -4 16 5 -5 8 -4 11 3 6 6 -3 15 2 21 11 6 10
11 13 11 6 0 -7 -16 -24 -35 -39 -32 -24 -38 -44 -14 -44 6 0 8 4 4 9 -3 5 0
13 6 17 7 4 9 3 6 -3 -4 -6 4 -15 17 -21 20 -9 25 -8 30 5 4 11 2 14 -9 10 -8
-4 -17 -2 -21 4 -11 19 4 21 33 5 15 -8 22 -15 16 -16 -7 0 -13 -4 -13 -10 0
-16 24 -7 37 15 8 13 8 26 1 40 -9 19 -8 19 9 -1 10 -12 28 -27 41 -33 12 -7
20 -17 16 -22 -3 -6 2 -9 11 -7 10 2 20 -3 22 -9 3 -7 0 -13 -7 -13 -6 0 -8 5
-4 12 5 9 2 9 -9 -1 -11 -9 -17 -10 -17 -2 0 6 -5 11 -11 11 -8 0 -8 -5 1 -15
16 -20 3 -19 -17 0 -8 8 -20 12 -26 8 -8 -5 -6 -9 6 -11 9 -2 14 -8 11 -13 -3
-6 -14 -3 -27 8 -11 10 -18 13 -14 7 4 -7 -4 -10 -21 -9 -15 1 -26 7 -25 13 2
7 -2 12 -7 12 -6 0 -10 -5 -10 -11 0 -5 -4 -8 -9 -5 -4 3 -17 -1 -27 -8 -13
-10 -25 -11 -39 -5 -20 10 -20 10 -1 -5 24 -20 16 -31 -8 -13 -15 11 -16 18
-8 34 10 18 8 20 -19 20 -28 0 -29 -1 -10 -11 l21 -11 -21 -13 c-17 -11 -20
-11 -13 0 6 11 5 11 -8 0 -13 -10 -17 -10 -22 5 -5 11 -1 22 9 29 14 11 14 12
-1 18 -22 9 -22 9 -20 -23 2 -25 -1 -28 -15 -21 -9 5 -18 8 -21 7 -2 -1 4 5
14 14 16 15 16 18 2 23 -22 8 -26 8 -19 -3 7 -12 -24 -43 -35 -36 -5 3 -7 12
-3 20 4 11 1 13 -11 9 -30 -12 -5 -48 27 -38 9 3 17 0 17 -6 0 -6 -4 -9 -9 -5
-5 3 -12 1 -16 -5 -9 -15 -48 8 -41 25 2 7 -2 16 -10 19 -24 9 -27 7 -14 -9 7
-9 10 -18 6 -22 -11 -12 -45 -10 -50 2 -3 8 5 10 22 7 16 -3 23 -1 19 4 -5 5
-13 9 -18 9 -5 0 -8 5 -7 10 2 6 6 9 10 8 11 -4 10 15 -2 22 -13 8 -42 -39
-34 -58 3 -9 -2 -20 -14 -26 -15 -8 -21 -7 -25 3 -3 8 1 13 10 12 10 0 17 8
18 21 1 12 -2 20 -7 17 -5 -4 -7 -12 -4 -20 3 -8 1 -14 -4 -14 -6 0 -10 7 -10
15 0 8 -4 15 -8 15 -5 0 -9 -7 -10 -15 -1 -8 -3 -22 -4 -30 -1 -9 -7 -14 -14
-11 -8 3 -11 0 -7 -10 4 -11 8 -12 19 -3 8 7 17 9 21 6 3 -4 14 -2 23 3 13 7
24 4 41 -9 13 -10 30 -16 38 -13 8 3 11 0 7 -7 -4 -6 -2 -11 4 -11 17 0 6 25
-11 26 -8 1 -18 2 -22 3 -4 0 -2 7 5 14 10 12 15 12 26 1 10 -10 19 -11 32 -4
16 8 22 6 35 -14 20 -30 51 -30 83 -3 22 21 32 11 10 -11 -8 -8 -9 -12 -1 -12
6 0 14 6 17 13 4 6 4 2 2 -9 -4 -22 15 -27 31 -9 4 4 2 5 -5 1 -6 -4 -12 -3
-12 3 0 5 -3 18 -7 28 -5 15 -2 14 19 -5 17 -16 28 -20 33 -12 4 6 16 8 28 5
20 -5 20 -5 4 5 -13 8 -22 9 -31 1 -10 -8 -17 -7 -27 6 -12 15 -12 16 2 11 9
-3 22 -2 29 2 8 5 22 2 35 -6 13 -8 30 -11 41 -7 17 6 17 5 5 -10 -8 -10 -11
-20 -7 -24 10 -10 55 -10 49 0 -3 5 -14 7 -24 4 -11 -3 -19 -1 -19 5 0 5 9 12
20 15 11 3 20 10 20 15 0 5 4 7 10 3 5 -3 7 -12 3 -20 -3 -8 0 -15 7 -15 6 0
9 3 7 8 -3 4 1 13 9 20 8 7 15 10 15 7 5 -21 3 -31 -8 -40 -9 -7 -10 -14 -2
-25 9 -13 10 -12 5 3 -3 9 -1 17 5 17 6 0 23 14 38 31 18 19 31 27 35 20 4 -6
2 -11 -3 -11 -21 0 -10 -20 19 -35 17 -9 30 -13 30 -11 0 3 -12 12 -27 19 -26
14 -26 14 -5 26 12 6 25 11 29 10 23 -4 35 3 30 16 -4 8 -2 17 3 20 6 4 11 1
11 -4 1 -6 3 -15 4 -21 1 -5 3 -16 4 -22 1 -9 4 -9 10 2 6 8 7 18 4 23 -3 5 0
7 8 5 8 -3 13 -11 12 -17 -2 -6 2 -11 8 -11 6 0 9 6 6 14 -3 8 1 20 10 28 14
11 15 10 9 -12 -5 -17 -4 -21 2 -11 8 11 10 11 14 0 4 -12 8 -12 22 0 13 11
20 11 28 3 7 -7 16 -12 21 -12 5 0 -1 9 -14 20 -13 10 -19 19 -13 20 5 0 21
-10 34 -22 22 -21 22 -22 4 -29 -14 -6 -15 -8 -3 -8 23 -1 30 9 19 29 -7 13
-5 20 7 24 9 4 18 4 21 1 3 -3 0 -5 -6 -5 -6 0 -9 -7 -6 -15 9 -23 21 -18 19
8 -1 14 -8 21 -20 20 -13 -1 -14 2 -6 10 17 17 47 -5 43 -31 -2 -14 4 -23 20
-28 37 -13 48 -13 55 -2 3 7 1 8 -5 4 -7 -4 -12 -3 -12 3 0 5 -3 18 -7 28 -5
15 -2 15 19 -4 13 -13 28 -23 32 -23 5 0 -2 9 -15 20 -19 15 -21 19 -7 20 9 0
18 -3 21 -7 2 -5 2 -3 1 4 -4 14 7 22 36 28 13 3 20 -2 21 -13 0 -12 3 -11 9
5 12 30 22 29 15 0 -6 -24 5 -38 38 -50 11 -4 16 -3 12 3 -3 6 -12 10 -20 10
-7 0 -16 7 -19 16 -8 22 -8 26 4 19 5 -3 7 0 4 8 -3 8 2 14 11 14 18 0 18 -2
4 -30 -9 -20 -9 -20 4 -5 8 10 17 15 21 11 4 -4 4 0 0 10 -3 10 -1 17 5 17 6
0 12 -6 12 -12 1 -7 2 -19 3 -27 0 -8 13 -15 28 -15 14 -1 24 2 21 7 -3 5 -14
6 -25 4 -12 -4 -18 -1 -15 6 3 7 10 11 16 10 6 -2 10 0 10 5 -3 19 2 33 11 27
6 -3 10 -1 10 4 0 6 5 11 11 11 5 0 7 -4 4 -10 -3 -5 -1 -10 4 -10 17 0 13 18
-6 29 -12 6 0 9 42 7 33 0 66 -5 73 -10 9 -5 18 -3 25 4 9 10 8 12 -5 7 -9 -3
-22 0 -28 8 -18 22 31 16 56 -7 13 -11 24 -15 28 -10 3 5 -1 15 -9 22 -8 7
-15 17 -15 23 0 5 8 3 19 -7 16 -14 20 -15 30 -2 7 8 10 24 6 35 -5 17 -2 19
19 15 20 -3 25 0 28 18 2 13 9 24 16 24 6 1 17 2 23 3 5 0 8 5 4 10 -3 5 -1
12 5 16 5 3 10 1 10 -5 0 -6 10 -4 25 6 14 9 25 21 25 28 0 6 -4 4 -10 -4 -5
-8 -13 -11 -17 -6 -4 4 2 16 15 27 25 19 21 45 -5 35 -9 -4 -13 -1 -10 6 2 7
10 12 16 11 6 -2 11 2 11 7 0 6 -4 10 -9 10 -14 0 -33 -28 -26 -40 12 -19 -25
-23 -40 -4 -19 25 -19 40 -1 25 11 -9 19 -7 40 14 14 14 22 25 18 25 -5 0 -13
-5 -20 -12 -7 -7 -12 -8 -12 -2 0 6 8 18 18 27 19 17 37 23 28 9 -2 -4 1 -15
8 -24 11 -15 13 -15 24 3 7 11 8 19 2 19 -5 0 -10 -5 -10 -12 0 -6 -3 -8 -7
-4 -5 4 -8 13 -8 18 0 19 -20 19 -41 0 -16 -15 -22 -16 -32 -6 -7 7 -20 10
-30 7 -15 -6 -15 -5 -3 10 9 12 18 14 31 7 12 -6 23 -5 36 6 18 14 18 15 -3 4
-18 -8 -26 -7 -43 10 -18 18 -56 18 -44 -1 3 -5 -3 -6 -12 -2 -14 5 -16 3 -10
-13 6 -16 5 -17 -6 -6 -11 11 -9 16 7 28 11 9 19 20 17 26 -2 6 4 8 12 5 10
-4 13 -1 9 9 -3 7 1 14 8 14 7 0 9 3 6 7 -4 3 -16 -2 -27 -12 -15 -14 -20 -15
-20 -4 0 8 -3 10 -8 4 -4 -5 -14 -11 -22 -13 -11 -3 -12 0 -4 8 6 6 18 12 25
14 8 1 24 8 37 14 12 7 22 10 22 6 0 -4 8 0 18 9 15 13 21 14 32 4 7 -6 10 -7
7 -2 -3 6 -2 17 3 25 7 12 11 12 27 -1 16 -12 17 -12 6 2 -14 18 4 37 67 70
20 11 46 29 55 39 10 11 23 20 29 20 6 1 43 30 81 65 39 36 73 65 76 65 7 0
241 235 289 290 16 19 47 60 68 90 20 30 42 60 48 65 58 51 299 482 319 569 2
11 21 66 41 121 48 133 66 187 68 205 1 8 7 24 13 35 6 11 11 23 11 28 0 4 7
40 16 80 8 39 17 86 20 102 2 17 7 41 10 55 3 14 8 48 11 75 2 28 6 64 9 80
20 124 29 576 12 675 -8 51 -10 70 -20 155 -9 75 -36 194 -64 275 -3 8 -7 26
-9 40 -2 13 -8 29 -12 35 -5 5 -16 35 -26 65 -16 49 -52 122 -150 305 -66 124
-114 206 -134 231 -12 15 -21 33 -21 40 0 8 -8 22 -17 32 -10 10 -44 51 -75
92 -62 81 -279 306 -343 355 -21 17 -58 47 -81 68 -22 20 -44 37 -48 37 -4 0
-31 18 -61 40 -30 22 -58 40 -63 40 -4 0 -39 21 -77 46 -39 26 -89 55 -112 66
-24 10 -43 23 -43 28 0 4 -15 12 -32 15 -18 4 -38 11 -44 16 -6 5 -19 10 -30
12 -10 2 -30 9 -44 14 -14 6 -42 16 -62 24 -21 7 -38 17 -38 21 0 4 11 31 25
60 l25 52 -22 23 c-12 13 -27 23 -33 23 -6 0 -24 14 -40 30 -16 17 -32 30 -36
30 -4 0 -20 -38 -34 -86 -24 -78 -28 -85 -48 -79 -42 12 -92 28 -107 33 -8 3
-17 6 -20 6 -3 1 -10 5 -16 9 -7 4 -23 6 -35 6 -13 -1 -51 5 -84 14 -78 21
-111 27 -160 32 -22 2 -51 6 -65 10 -29 6 -96 7 -125 2 -11 -2 -39 2 -63 9
-24 7 -57 11 -74 8 -18 -2 -36 0 -42 5 -6 4 -45 8 -86 9 -41 1 -102 4 -135 7
-33 2 -105 7 -160 10 -55 3 -113 7 -130 10 -101 14 -298 28 -307 20z m-388
-5086 c0 7 11 0 25 -15 14 -15 25 -22 25 -16 0 7 15 3 35 -9 19 -11 42 -22 51
-23 18 -3 30 -56 13 -56 -6 0 -8 4 -5 9 3 4 -1 16 -8 26 -9 13 -15 15 -20 7
-4 -7 -2 -12 3 -12 6 0 11 -7 11 -16 0 -12 -5 -11 -20 7 -10 13 -19 19 -20 14
0 -6 5 -16 12 -23 9 -9 8 -15 -8 -28 -13 -11 -14 -14 -3 -11 9 3 22 1 30 -3
10 -7 7 -9 -11 -8 -14 1 -33 9 -44 17 -20 18 -68 23 -63 6 2 -5 13 -10 25 -10
12 0 33 -12 47 -27 14 -16 22 -28 17 -28 -6 0 -17 11 -26 24 -11 17 -21 23
-36 19 -22 -6 -22 -24 0 -31 7 -3 10 0 6 7 -4 6 -4 11 -1 11 9 0 44 -43 45
-55 0 -5 -7 0 -15 12 -9 12 -21 20 -29 17 -15 -6 -38 18 -34 36 2 7 -3 15 -11
18 -10 3 -11 0 -5 -9 7 -12 5 -12 -9 0 -29 23 -18 -2 13 -33 22 -22 27 -32 18
-38 -12 -7 -11 -9 11 -12 18 -2 22 -15 12 -35 -6 -11 -7 -22 -2 -25 4 -3 13 5
19 18 8 18 7 29 -4 45 -8 11 -11 21 -5 21 5 0 13 -9 16 -20 4 -11 11 -18 16
-15 8 6 13 -8 10 -27 -2 -12 14 -9 27 4 7 7 12 8 12 2 0 -5 -9 -15 -20 -22
-11 -7 -20 -17 -20 -22 0 -6 13 -1 29 11 20 14 27 27 23 38 -3 9 11 -2 31 -24
37 -41 46 -41 25 -2 -10 20 -10 21 5 8 10 -7 17 -20 17 -27 0 -8 5 -14 11 -14
5 0 7 5 3 12 -4 6 -3 8 2 5 6 -3 24 1 42 10 17 8 40 12 49 8 16 -6 16 -8 -6
-26 -13 -10 -28 -19 -35 -19 -7 0 -6 4 3 9 18 12 1 20 -23 12 -18 -7 -18 -8 4
-24 19 -13 21 -19 10 -32 -7 -8 -8 -15 -2 -15 5 0 15 7 22 15 7 8 9 15 6 15
-4 0 6 11 21 24 31 27 47 26 17 -1 -10 -10 -26 -26 -33 -36 -13 -16 -13 -19 0
-17 26 4 40 0 34 -10 -3 -5 -2 -10 2 -10 5 0 16 13 26 29 13 23 24 29 45 28
23 -2 27 -7 26 -30 -1 -17 3 -26 10 -24 6 3 10 10 8 17 -5 23 25 57 49 55 13
-1 25 -7 27 -13 2 -7 9 -9 15 -5 7 3 9 3 5 -2 -4 -4 -2 -17 4 -28 8 -16 7 -23
-5 -32 -14 -10 -13 -12 3 -23 16 -9 19 -8 19 6 1 37 5 52 12 52 4 0 7 -9 6
-20 -1 -11 -6 -20 -12 -20 -5 0 -3 -5 5 -10 8 -5 15 -15 15 -22 0 -7 5 -13 12
-13 6 0 15 -4 20 -9 5 -5 3 -6 -4 -2 -7 4 -13 2 -13 -3 0 -6 5 -11 12 -11 6 0
3 -7 -8 -15 -19 -15 -19 -15 1 -8 18 6 19 5 6 -11 -12 -14 -16 -15 -22 -3 -5
8 -7 24 -4 36 2 14 0 19 -7 15 -7 -5 -8 -2 -3 6 5 9 4 11 -4 6 -9 -6 -9 -11 0
-22 7 -9 8 -14 1 -14 -18 0 -25 20 -12 35 10 12 8 13 -9 10 -12 -2 -25 3 -31
13 -5 9 -10 12 -10 7 0 -6 6 -17 13 -24 10 -11 9 -12 -2 -6 -10 5 -12 4 -7 -4
4 -6 12 -9 17 -6 5 4 9 1 9 -4 0 -6 -5 -11 -11 -11 -8 0 -8 -4 1 -15 6 -8 9
-19 5 -25 -11 -18 -23 -11 -18 10 3 11 0 20 -6 20 -5 0 -8 6 -5 14 3 8 -3 19
-15 25 -24 13 -34 14 -27 2 3 -5 0 -14 -8 -20 -11 -9 -15 -8 -20 5 -5 13 -9
14 -21 4 -15 -13 -18 -9 -16 25 0 11 -2 14 -5 7 -5 -10 -9 -9 -20 5 -13 17
-14 17 -8 -2 4 -15 3 -16 -4 -6 -7 10 -14 10 -30 2 -14 -8 -23 -8 -27 -1 -5 8
-11 7 -21 -1 -7 -6 -12 -15 -9 -19 7 -12 -6 -41 -16 -35 -4 3 -6 12 -3 19 3 7
-2 16 -10 19 -9 4 -16 12 -16 18 0 8 4 8 13 1 9 -7 17 -4 29 12 16 22 16 22
-18 21 -19 -1 -34 3 -34 8 0 6 -3 7 -6 4 -4 -4 -2 -12 4 -20 7 -8 7 -18 2 -27
-8 -12 -10 -12 -10 -1 0 11 -3 11 -17 0 -11 -10 -14 -10 -9 -1 4 6 3 12 -3 12
-5 0 -12 -6 -15 -12 -2 -7 -4 -2 -3 12 1 15 -3 24 -10 22 -7 -1 -13 3 -13 10
0 6 -6 3 -14 -8 -14 -19 -14 -19 -13 1 1 13 -4 20 -18 20 -12 0 -20 -7 -19
-16 1 -11 -5 -15 -18 -11 -18 4 -18 5 -1 18 17 13 17 14 1 8 -10 -3 -18 -2
-18 4 0 14 -35 8 -36 -6 -3 -22 -4 -23 -23 -12 -13 7 -21 7 -24 0 -3 -6 -4 -5
-2 2 1 7 7 12 13 11 5 -1 13 4 16 13 3 8 2 12 -3 9 -5 -3 -13 -1 -16 5 -5 8
-12 7 -23 -2 -14 -11 -15 -10 -8 7 5 14 4 17 -3 10 -6 -6 -12 -22 -14 -35 -2
-14 -9 -25 -15 -24 -7 1 -17 2 -24 3 -7 0 -2 10 10 21 12 11 19 27 16 34 -4
11 2 14 25 11 31 -4 50 8 31 20 -5 3 -10 0 -10 -7 0 -8 -3 -9 -8 -3 -4 6 -15
11 -24 12 -35 1 -39 3 -33 12 3 5 1 12 -4 15 -5 4 -12 2 -16 -4 -4 -6 -11 -8
-16 -5 -11 7 -12 26 -1 24 19 -3 33 2 27 11 -4 7 -12 7 -25 0 -13 -7 -21 -6
-30 5 -7 8 -9 15 -4 15 5 0 2 5 -6 11 -13 9 -12 10 3 5 12 -4 16 -2 11 6 -4 7
-3 8 4 4 8 -5 10 -2 6 8 -4 9 0 18 10 22 14 5 14 8 -2 23 -10 9 -11 12 -2 6 9
-6 8 -1 -5 15 l-20 25 20 -15 c18 -14 19 -13 8 1 -11 13 -9 15 15 14 15 -1 34
-5 41 -9 9 -6 12 -4 9 5 -3 8 -15 13 -28 11 -18 -2 -20 1 -11 11 12 15 48 16
71 2 13 -8 13 -7 0 10 -8 10 -10 16 -4 12 6 -3 11 0 11 8 0 8 -5 12 -10 8 -5
-3 -4 4 2 16 7 12 9 26 6 31 -3 6 -1 10 5 10 6 0 8 6 5 13 -4 6 3 1 14 -12 12
-13 21 -18 21 -12z m-202 -31 c15 -15 16 -31 0 -22 -7 4 -8 3 -4 -4 5 -8 13
-9 24 -3 9 5 28 8 42 6 14 -1 30 5 36 13 18 25 44 24 40 -1 -2 -14 -10 -22
-23 -22 -12 0 -30 -9 -42 -19 -12 -11 -21 -14 -21 -8 0 6 5 12 12 14 7 3 5 7
-6 11 -11 5 -15 3 -10 -5 5 -8 2 -9 -11 -4 -15 5 -16 4 -6 -8 10 -11 8 -17 -6
-25 -13 -7 -14 -10 -4 -11 8 0 11 -3 8 -7 -4 -3 0 -14 8 -23 14 -15 13 -19
-10 -42 l-24 -25 30 -42 c26 -34 34 -39 46 -30 8 7 13 8 12 3 -3 -19 1 -35 9
-30 12 7 8 -32 -5 -45 -12 -12 -45 1 -44 17 0 5 -7 8 -14 8 -8 -1 -12 2 -9 7
3 5 1 9 -4 9 -5 0 -15 13 -22 30 -7 16 -17 27 -23 23 -6 -4 -7 -1 -3 8 4 8 1
6 -8 -5 -14 -17 -15 -16 -14 13 1 27 3 29 17 18 9 -6 19 -16 22 -21 4 -4 10
-3 13 3 4 6 3 11 -3 11 -5 0 -8 9 -6 20 3 17 1 18 -14 10 -15 -7 -22 -5 -35
13 -9 12 -14 16 -10 8 5 -9 3 -12 -5 -7 -6 4 -9 11 -6 16 6 10 52 7 63 -5 4
-4 2 -5 -5 -1 -6 3 -14 2 -17 -3 -5 -8 15 -8 34 -1 3 1 8 2 11 2 7 -1 4 56 -2
63 -2 2 -13 -3 -24 -12 -20 -15 -20 -15 2 -9 16 5 21 3 19 -8 -3 -20 -16 -33
-16 -17 0 8 -8 11 -19 8 -23 -6 -48 7 -32 17 6 4 11 1 11 -6 1 -7 8 1 17 17
19 33 23 83 9 103 -11 16 6 16 22 0z m2586 -1 c4 -4 3 -5 -1 -2 -3 3 -13 -4
-20 -15 -12 -16 -12 -24 -3 -35 14 -16 34 -10 24 7 -4 6 -2 8 4 4 6 -3 15 1
20 10 5 10 12 12 16 6 3 -5 -1 -15 -9 -22 -12 -10 -13 -16 -4 -26 14 -17 32
-18 24 -1 -4 6 3 1 14 -12 22 -25 19 -50 -4 -31 -18 15 -31 -6 -15 -25 7 -8 9
-15 4 -15 -5 -1 2 -7 16 -14 22 -13 26 -12 38 5 7 10 18 19 24 19 6 0 1 -11
-11 -24 -13 -14 -20 -29 -16 -35 3 -6 3 -11 -2 -11 -14 0 -35 17 -34 26 2 15
-40 12 -46 -3 -5 -12 -7 -12 -15 -1 -8 10 -9 9 -5 -3 3 -9 -1 -16 -8 -16 -7 0
-11 6 -8 13 2 6 -1 15 -7 19 -7 4 -9 -2 -6 -19 3 -18 1 -24 -6 -20 -7 5 -8 2
-3 -6 6 -9 4 -11 -4 -5 -7 4 -5 -4 4 -19 20 -30 20 -31 -15 -40 -17 -5 -21 -4
-11 2 9 7 10 12 2 16 -6 4 -11 2 -11 -5 0 -7 -3 -9 -7 -6 -3 4 -11 3 -18 -1
-6 -4 -3 0 7 9 9 9 15 19 11 22 -3 4 -14 -4 -24 -16 -16 -19 -20 -20 -30 -7
-9 13 -10 13 -5 -2 3 -10 1 -20 -4 -23 -6 -4 -10 -11 -10 -18 0 -6 6 -2 14 9
12 16 17 17 28 6 11 -11 10 -12 -4 -7 -10 4 -18 3 -18 -3 0 -11 18 -11 35 0 6
3 23 4 40 2 22 -2 26 -1 15 6 -9 6 -10 10 -3 10 18 0 25 -18 15 -36 -8 -13
-10 -14 -21 0 -7 8 -19 12 -27 9 -12 -5 -11 -10 8 -32 l23 -26 -27 24 c-16 14
-31 21 -35 18 -3 -4 -12 -2 -19 4 -9 7 -14 5 -19 -11 -3 -11 -11 -17 -17 -14
-6 4 -5 10 3 15 10 6 10 9 2 9 -7 0 -11 6 -9 13 1 6 1 9 -1 4 -3 -4 -9 -4 -14
-1 -6 3 -3 11 6 18 16 11 15 13 -1 27 -16 12 -17 12 -11 -3 3 -10 2 -20 -4
-23 -5 -4 -7 -11 -4 -16 4 -5 2 -9 -3 -9 -15 0 -21 37 -9 49 15 15 1 14 -22
-1 -18 -11 -18 -13 -3 -25 16 -12 16 -14 -2 -28 -11 -8 -15 -15 -10 -15 6 0
14 3 18 7 10 11 46 11 39 0 -3 -6 -1 -7 5 -3 8 5 10 1 5 -9 -5 -13 -7 -14 -14
-3 -7 11 -11 10 -19 -2 -7 -11 -10 -11 -10 -2 0 10 -5 10 -21 2 -11 -7 -19
-14 -16 -16 3 -3 -5 -16 -16 -29 -21 -23 -22 -23 -35 -3 -12 16 -16 17 -23 7
-7 -11 -9 -11 -9 1 0 13 -1 13 -10 0 -9 -13 -10 -13 -10 0 0 13 -1 13 -10 0
-9 -13 -10 -13 -10 0 -1 12 -2 12 -10 -1 -7 -12 -20 -16 -45 -13 -23 2 -34 -1
-32 -9 1 -7 -6 -11 -15 -11 -10 1 -18 -3 -18 -9 0 -6 -7 -1 -17 12 -13 19 -14
28 -5 42 17 26 15 31 -7 17 -20 -12 -21 -24 -7 -47 6 -10 5 -12 -2 -7 -8 5
-10 1 -5 -9 5 -13 7 -14 14 -3 13 19 11 0 -2 -24 -8 -15 -8 -19 0 -14 6 4 11
0 11 -9 0 -13 -4 -14 -20 -5 -10 6 -17 16 -14 24 3 7 -2 19 -10 26 -9 7 -13
16 -10 21 12 19 -18 8 -42 -16 -23 -23 -52 -26 -39 -4 14 22 -15 6 -33 -18
l-20 -28 -13 28 c-7 15 -16 27 -21 27 -5 0 -7 -4 -3 -9 3 -5 0 -13 -7 -17 -22
-14 -47 -11 -53 4 -4 12 -8 13 -18 3 -7 -7 -12 -17 -12 -23 0 -6 -13 -12 -28
-14 -22 -2 -27 1 -23 12 8 21 -31 -1 -47 -26 -15 -26 -31 -26 -17 -1 13 26 13
40 -1 21 -8 -12 -12 -12 -16 -2 -4 10 -8 9 -18 -5 -13 -17 -14 -17 -20 0 -7
17 -8 17 -20 0 -13 -17 -14 -17 -35 2 -18 16 -20 16 -14 2 4 -10 1 -17 -6 -17
-7 0 -10 8 -8 18 3 11 0 19 -7 19 -8 0 -11 -7 -7 -16 5 -13 3 -14 -10 -4 -8 7
-18 11 -22 8 -3 -3 -2 0 2 5 11 14 50 21 56 11 3 -4 18 -7 33 -6 15 1 33 -2
40 -7 7 -5 14 -5 18 2 3 6 11 8 16 5 5 -4 15 -3 22 2 6 4 18 8 26 8 24 0 24
23 0 42 -12 10 -30 25 -40 35 -9 9 -20 13 -24 10 -3 -4 -3 2 1 13 5 11 9 14
12 7 2 -7 8 -10 13 -7 5 4 6 -2 2 -12 -3 -10 -3 -15 2 -11 4 4 14 0 21 -10 10
-14 15 -15 25 -4 11 10 10 12 -4 12 -9 0 -17 5 -17 11 0 12 16 4 49 -25 19
-17 23 -18 18 -4 -3 10 0 19 9 22 9 3 12 10 9 16 -3 5 -1 10 4 10 14 0 14 -13
0 -27 -16 -16 -7 -46 14 -49 10 -1 16 3 14 9 -3 7 -10 11 -16 9 -18 -4 5 35
28 47 10 6 28 9 40 6 12 -2 25 3 31 13 11 19 13 13 14 -47 1 -19 6 -36 12 -38
7 -2 11 9 10 29 -1 22 4 33 13 33 8 0 16 6 19 14 3 9 0 11 -8 6 -9 -6 -11 -4
-5 5 11 18 36 -15 28 -38 -3 -12 2 -10 15 6 11 12 25 22 31 22 6 0 11 5 11 10
0 6 5 10 10 10 6 0 5 -8 -2 -19 -7 -11 -15 -18 -19 -15 -4 2 -12 -2 -18 -10
-10 -11 -7 -14 14 -12 14 0 25 4 25 7 0 3 7 14 15 25 9 10 14 13 13 5 -2 -7 3
-16 11 -19 8 -2 11 0 7 6 -3 5 1 23 9 38 9 19 15 23 15 12 0 -9 -4 -20 -10
-23 -5 -3 -10 -11 -10 -17 0 -6 9 -3 20 7 11 10 20 13 20 7 0 -7 -5 -12 -11
-12 -5 0 -7 -5 -4 -10 11 -18 36 10 30 31 -4 11 -2 19 3 19 5 0 9 -12 8 -27 0
-14 4 -28 11 -30 8 -3 11 5 8 24 -2 15 -2 22 1 15 8 -16 25 -5 18 12 -8 21 12
28 30 11 9 -9 12 -23 9 -33 -6 -15 -5 -16 13 -2 15 11 16 11 7 0 -7 -8 -13
-19 -13 -24 1 -6 12 3 25 19 14 17 25 24 25 16 0 -8 3 -11 8 -7 4 4 7 13 7 19
0 20 23 18 44 -4 l20 -22 -2 22 c-1 11 -9 24 -19 27 -10 3 -18 10 -18 15 0 13
18 11 22 -2 5 -15 48 6 48 23 0 7 5 6 15 -2 10 -8 15 -9 15 -2 0 6 -8 16 -17
21 -10 6 -13 11 -7 11 5 0 15 -5 21 -11 8 -8 13 -8 17 0 4 6 2 11 -3 11 -6 0
-11 5 -11 11 0 8 5 8 15 -1 15 -13 21 -2 8 16 -5 5 0 1 10 -10 10 -10 15 -27
12 -37 -4 -12 -1 -17 9 -15 20 3 33 16 16 16 -7 0 -10 3 -7 7 4 3 0 17 -8 30
-9 13 -13 23 -11 23 2 0 11 3 20 6 9 3 16 1 16 -6 0 -6 -4 -8 -10 -5 -5 3 -10
1 -10 -4 0 -6 2 -11 4 -11 2 0 11 -2 18 -5 11 -4 14 10 14 70 0 47 -4 74 -11
72 -5 -2 -9 -11 -7 -21 2 -9 -2 -16 -8 -16 -6 0 -8 5 -5 10 6 9 -8 14 -28 11
-5 -1 -6 3 -3 8 4 5 -2 15 -11 21 -17 11 -17 11 -1 6 11 -3 22 2 28 15 6 11
15 17 19 14 5 -2 14 2 21 10 7 8 16 13 20 10 5 -3 11 -2 14 3 6 10 63 9 70 -1z
m-2181 -74 c-1 -12 5 -19 18 -20 16 -2 18 1 10 11 -8 9 -7 13 3 13 8 0 13 -7
11 -16 -1 -10 -12 -16 -26 -16 -19 1 -23 6 -22 22 2 16 -2 21 -12 17 -8 -4
-15 -2 -15 4 0 6 8 9 18 7 10 -1 16 -10 15 -22z m1942 -3 c3 -5 1 -10 -4 -10
-6 0 -11 5 -11 10 0 6 2 10 4 10 3 0 8 -4 11 -10z m63 -7 c-2 -12 -12 -18 -27
-17 -18 1 -22 -3 -18 -17 3 -11 -2 -23 -11 -28 -15 -9 -15 -11 3 -25 11 -8 16
-16 11 -16 -5 0 -2 -8 5 -17 13 -16 12 -17 -4 -4 -9 8 -15 16 -12 19 2 3 -3
11 -13 19 -15 11 -15 14 -2 26 8 6 15 21 15 32 0 15 6 20 23 19 16 -1 22 3 18
12 -3 8 -1 14 5 14 6 0 9 -8 7 -17z m-2024 -19 c3 -8 2 -12 -4 -9 -6 3 -10 10
-10 16 0 14 7 11 14 -7z m-24 -9 c13 -15 5 -39 -11 -30 -5 4 -9 2 -9 -4 0 -5
5 -12 10 -14 6 -3 5 -4 -2 -3 -7 2 -13 9 -13 17 0 8 6 13 13 12 21 -5 13 17
-10 27 -16 6 -18 9 -7 9 9 1 22 -6 29 -14z m123 2 c7 3 9 2 4 -2 -4 -5 -16 -9
-27 -10 -16 -1 -17 1 -8 13 8 9 14 10 16 3 2 -6 9 -8 15 -4z m1831 4 c19 9 19
9 4 -4 -10 -8 -15 -16 -12 -19 2 -3 -2 -8 -11 -12 -10 -3 -14 -2 -10 5 4 5 1
18 -6 27 -11 14 -11 15 1 5 9 -9 19 -9 34 -2z m123 -13 c-3 -8 -6 -5 -6 6 -1
11 2 17 5 13 3 -3 4 -12 1 -19z m-1924 -6 c-10 -10 -20 -17 -22 -16 -6 5 20
34 30 34 5 0 1 -8 -8 -18z m81 10 c3 -5 -1 -9 -9 -9 -8 0 -12 4 -9 9 3 4 7 8
9 8 2 0 6 -4 9 -8z m1672 -16 c1 -7 -4 -13 -12 -13 -9 0 -11 4 -4 12 5 7 8 15
5 18 -3 4 -2 5 2 2 4 -3 8 -11 9 -19z m-1839 8 c-3 -3 -12 -4 -19 -1 -8 3 -5
6 6 6 11 1 17 -2 13 -5z m2043 -4 c0 -5 -4 -10 -10 -10 -5 0 -10 5 -10 10 0 6
5 10 10 10 6 0 10 -4 10 -10z m-2089 -23 c-10 -9 -11 -8 -5 6 3 10 9 15 12 12
3 -3 0 -11 -7 -18z m158 11 c-1 -1 3 -14 10 -28 10 -21 10 -22 -1 -9 -7 9 -17
16 -23 17 -5 0 -11 6 -13 14 -2 9 0 8 7 -2 10 -14 16 -7 11 15 -1 6 1 7 5 3 4
-3 6 -8 4 -10z m146 2 c3 -5 1 -10 -4 -10 -6 0 -11 5 -11 10 0 6 2 10 4 10 3
0 8 -4 11 -10z m-748 -48 c-4 -2 -3 -10 4 -18 18 -22 -6 -16 -26 6 -10 11 -14
20 -9 20 5 0 3 4 -5 9 -7 5 -11 14 -7 19 4 7 15 3 29 -11 12 -12 18 -24 14
-25z m378 38 c3 -6 -1 -7 -9 -4 -18 7 -21 14 -7 14 6 0 13 -4 16 -10z m140 -9
c-3 -6 -11 -11 -16 -11 -5 0 -4 6 3 14 14 16 24 13 13 -3z m1733 -6 c-3 -3 -9
2 -12 12 -6 14 -5 15 5 6 7 -7 10 -15 7 -18z m258 14 c7 -13 -13 -29 -36 -28
-8 0 -4 5 10 11 14 6 20 12 13 15 -7 2 -21 0 -32 -6 -25 -14 -31 -14 -31 0 0
5 4 8 8 5 4 -2 14 -1 22 5 20 12 37 11 46 -2z m-2033 -6 c-7 -2 -13 -9 -13
-14 0 -6 4 -8 9 -4 5 3 12 1 15 -4 7 -10 -19 -9 -30 1 -9 9 5 28 19 27 9 0 9
-2 0 -6z m331 -1 c3 -5 -1 -9 -9 -9 -8 0 -12 4 -9 9 3 4 7 8 9 8 2 0 6 -4 9
-8z m1397 -9 c12 -16 12 -17 -2 -6 -9 7 -20 9 -24 5 -5 -4 -5 -1 -1 6 9 16 11
15 27 -5z m-1431 3 c0 -2 -8 -10 -17 -17 -16 -13 -17 -12 -4 4 13 16 21 21 21
13z m-380 -16 c0 -5 8 -10 18 -10 11 0 8 -5 -12 -15 -37 -20 -45 -19 -43 4 0
11 5 17 9 15 5 -3 6 -10 3 -15 -4 -5 -2 -9 3 -9 16 0 22 13 11 27 -9 9 -8 13
0 13 6 0 11 -4 11 -10z m56 -26 c3 -16 2 -26 -1 -23 -3 4 -8 19 -11 35 -3 16
-2 26 1 23 3 -4 8 -19 11 -35z m81 22 c0 -8 -6 -12 -15 -9 -11 5 -11 7 0 14 7
5 13 9 14 9 0 0 1 -6 1 -14z m323 10 c0 -3 -4 -8 -10 -11 -5 -3 -10 -1 -10 4
0 6 5 11 10 11 6 0 10 -2 10 -4z m1520 -16 c-6 -11 -15 -20 -21 -20 -6 0 -7
-5 -3 -12 4 -7 3 -8 -5 -4 -8 5 -5 15 11 32 28 29 32 30 18 4z m-1822 -7 c-2
-10 3 -24 12 -31 13 -11 12 -12 -7 -3 -15 8 -20 17 -16 31 7 25 16 27 11 3z
m179 2 c0 -8 -4 -12 -9 -9 -5 3 -6 10 -3 15 9 13 12 11 12 -6z m88 -5 c10 -11
16 -20 13 -20 -3 0 -13 9 -23 20 -10 11 -16 20 -13 20 3 0 13 -9 23 -20z
m1455 16 c0 -2 -8 -10 -17 -17 -16 -13 -17 -12 -4 4 13 16 21 21 21 13z m38
-21 c-3 -3 -9 2 -12 12 -6 14 -5 15 5 6 7 -7 10 -15 7 -18z m-1664 -1 c3 -8 2
-12 -4 -9 -6 3 -10 10 -10 16 0 14 7 11 14 -7z m357 -1 c13 -16 12 -17 -3 -4
-17 13 -22 21 -14 21 2 0 10 -8 17 -17z m1083 9 c3 -5 -1 -9 -9 -9 -8 0 -12 4
-9 9 3 4 7 8 9 8 2 0 6 -4 9 -8z m122 -4 c3 -4 -1 -5 -10 -4 -8 1 -18 5 -22 8
-3 4 1 5 10 4 8 -1 18 -5 22 -8z m203 -22 c-3 -3 -11 5 -18 17 -13 21 -12 21
5 5 10 -10 16 -20 13 -22z m296 11 c-4 -37 -5 -38 -14 -32 -5 3 -12 1 -16 -5
-4 -6 -11 -7 -17 -4 -6 4 -8 -1 -4 -13 7 -23 -20 -28 -28 -6 -3 8 -2 12 2 9 4
-2 8 5 9 17 0 12 -1 16 -4 10 -3 -7 -9 -13 -15 -13 -6 0 -5 6 2 15 7 9 15 13
18 10 3 -3 11 0 19 6 10 9 17 8 31 -2 16 -13 16 -13 0 7 -16 19 -16 20 1 21
13 1 18 -5 16 -20z m-2218 7 c-3 -3 -12 -4 -19 -1 -8 3 -5 6 6 6 11 1 17 -2
13 -5z m-57 -25 c0 -6 -4 -7 -10 -4 -5 3 -10 11 -10 16 0 6 5 7 10 4 6 -3 10
-11 10 -16z m82 12 c-8 -4 -13 -11 -12 -15 1 -4 -1 -12 -4 -19 -3 -9 -1 26 3
41 1 1 7 2 14 2 9 0 9 -2 -1 -9z m98 -12 c0 -4 -6 -11 -12 -15 -7 -4 -10 -4
-6 1 4 4 0 14 -10 21 -15 12 -15 12 6 7 12 -3 22 -9 22 -14z m156 -16 c-2 -9
-9 -19 -17 -21 -9 -2 -10 0 -4 5 13 10 13 23 0 43 -7 13 -6 13 7 2 9 -7 15
-20 14 -29z m1524 33 c0 -2 -7 -7 -16 -10 -8 -3 -12 -2 -9 4 6 10 25 14 25 6z
m98 -31 c0 -13 -5 -22 -10 -19 -5 3 -6 15 -2 26 4 15 3 18 -6 13 -9 -5 -11 -4
-6 4 11 17 24 5 24 -24z m-1708 10 c5 3 11 1 14 -4 4 -5 -2 -8 -11 -7 -9 2
-18 8 -19 15 -1 6 0 7 3 1 2 -5 9 -8 13 -5z m226 0 c-1 -8 -5 -17 -8 -21 -5
-4 -4 16 1 34 3 9 9 -1 7 -13z m1189 -5 c10 -11 16 -20 13 -20 -3 0 -13 9 -23
20 -10 11 -16 20 -13 20 3 0 13 -9 23 -20z m128 -1 c-8 -8 -13 -7 -18 2 -5 8
-4 10 3 5 7 -4 12 -2 12 5 0 7 3 9 7 6 4 -4 2 -12 -4 -18z m84 1 c-5 -21 13
-23 43 -5 13 7 13 6 2 -7 -12 -15 -52 -20 -52 -5 0 4 0 14 0 22 0 8 3 15 6 15
4 0 4 -9 1 -20z m-1827 0 c0 -5 -2 -10 -4 -10 -3 0 -8 5 -11 10 -3 6 -1 10 4
10 6 0 11 -4 11 -10z m41 -13 c-10 -9 -11 -8 -5 6 3 10 9 15 12 12 3 -3 0 -11
-7 -18z m309 11 c0 -4 -4 -8 -9 -8 -6 0 -12 4 -15 8 -3 5 1 9 9 9 8 0 15 -4
15 -9z m140 6 c0 -8 -19 -13 -24 -6 -3 5 1 9 9 9 8 0 15 -2 15 -3z m45 -3 c-9
-8 -36 -10 -30 -2 2 4 11 8 20 8 8 0 13 -3 10 -6z m869 -7 c3 -8 2 -12 -4 -9
-6 3 -10 10 -10 16 0 14 7 11 14 -7z m-1217 -35 c1 -20 1 -21 -3 -3 -4 15 -11
20 -23 17 -10 -3 -21 -1 -24 4 -3 5 7 8 21 7 21 0 27 -6 29 -25z m49 -17 c-14
-14 -16 -14 -22 1 -3 9 -4 22 -1 29 3 7 6 3 6 -10 1 -13 5 -20 11 -17 6 4 8
16 5 28 -5 20 -5 20 6 3 9 -14 8 -21 -5 -34z m218 40 c3 -5 -1 -9 -9 -9 -8 0
-12 4 -9 9 3 4 7 8 9 8 2 0 6 -4 9 -8z m200 0 c3 -5 -1 -9 -9 -9 -8 0 -15 4
-15 9 0 4 4 8 9 8 6 0 12 -4 15 -8z m40 0 c3 -5 -1 -9 -9 -9 -8 0 -12 4 -9 9
3 4 7 8 9 8 2 0 6 -4 9 -8z m416 -2 c0 -5 -5 -10 -11 -10 -5 0 -7 5 -4 10 3 6
8 10 11 10 2 0 4 -4 4 -10z m260 0 c0 -5 -2 -10 -4 -10 -3 0 -8 5 -11 10 -3 6
-1 10 4 10 6 0 11 -4 11 -10z m253 -13 c4 3 7 1 7 -5 0 -19 -15 -14 -36 11
-19 22 -19 22 2 4 11 -9 24 -14 27 -10z m187 -7 c0 -6 -9 -2 -20 7 -11 10 -20
19 -20 21 0 1 9 -2 20 -8 11 -6 20 -15 20 -20z m-1400 -6 c0 -8 -4 -14 -8 -14
-4 0 -8 9 -8 19 0 11 4 17 8 15 4 -3 8 -12 8 -20z m114 13 c4 4 4 -1 0 -11 -5
-13 -4 -17 4 -12 8 5 10 1 5 -10 -4 -11 -8 -13 -11 -6 -2 7 -8 10 -13 7 -5 -4
-6 2 -2 11 4 10 2 15 -4 11 -5 -3 -10 0 -10 8 0 10 4 12 12 5 7 -5 15 -7 19
-3z m1019 5 c3 7 5 3 3 -9 -1 -12 -5 -25 -9 -28 -4 -3 -5 -2 -2 2 3 3 -3 16
-12 27 -15 17 -15 18 -1 8 13 -10 17 -10 21 0z m183 -24 c-9 -12 -16 -19 -16
-15 0 11 24 47 28 42 2 -2 -3 -14 -12 -27z m-1346 18 c0 -3 -7 -12 -16 -20
-16 -17 -34 -13 -34 7 0 8 3 8 9 -1 6 -10 10 -10 21 3 12 15 20 19 20 11z
m367 -13 c0 -9 -4 -10 -14 -2 -7 6 -13 12 -13 14 0 1 6 2 13 2 8 0 14 -6 14
-14z m54 0 c12 -16 12 -17 -2 -6 -9 7 -20 9 -24 5 -5 -4 -5 -1 -1 6 9 16 11
15 27 -5z m405 -5 c19 -23 19 -23 -2 -5 -11 9 -24 14 -29 10 -4 -5 -5 -2 -1 5
9 16 10 16 32 -10z m108 14 c3 -5 -1 -9 -9 -9 -8 0 -12 4 -9 9 3 4 7 8 9 8 2
0 6 -4 9 -8z m132 -4 c4 -7 4 -10 -1 -6 -4 4 -15 2 -24 -5 -14 -11 -14 -10 -2
6 16 20 18 21 27 5z m251 -1 c2 -3 -8 -4 -22 -4 -14 0 -25 3 -25 8 0 7 38 4
47 -4z m83 3 c8 -5 11 -10 5 -10 -5 0 -17 5 -25 10 -8 5 -10 10 -5 10 6 0 17
-5 25 -10z m-2255 -10 c-3 -5 -11 -10 -16 -10 -6 0 -7 5 -4 10 3 6 11 10 16
10 6 0 7 -4 4 -10z m641 -2 c4 -6 3 -9 -2 -6 -5 3 -15 0 -22 -8 -7 -8 -9 -14
-5 -14 4 0 2 -5 -5 -12 -9 -9 -15 -9 -24 1 -11 10 -9 11 7 5 11 -4 17 -3 12 1
-4 5 0 17 10 27 19 21 20 21 29 6z m1669 -8 c-34 -23 -45 -25 -45 -8 0 6 3 8
6 5 4 -3 16 0 28 8 11 8 25 15 31 15 5 0 -3 -9 -20 -20z m-1200 0 c3 -6 -1 -7
-9 -4 -18 7 -21 14 -7 14 6 0 13 -4 16 -10z m91 -24 c1 -10 -4 -12 -14 -9 -11
5 -13 3 -7 -8 5 -8 4 -11 0 -6 -17 15 -14 36 3 29 15 -5 15 -4 2 14 -11 15
-11 16 0 7 8 -7 15 -19 16 -27z m549 24 c3 -6 -1 -7 -9 -4 -18 7 -21 14 -7 14
6 0 13 -4 16 -10z m215 -10 c-6 -11 -15 -20 -21 -20 -6 0 -7 -6 -3 -12 4 -7 3
-9 -1 -5 -13 12 -15 36 -3 44 7 3 8 1 4 -5 -4 -7 -3 -12 2 -12 6 0 12 7 16 15
3 8 8 15 11 15 3 0 1 -9 -5 -20z m594 12 c3 -5 -1 -9 -9 -9 -8 0 -12 4 -9 9 3
4 7 8 9 8 2 0 6 -4 9 -8z m-1640 -17 c-23 -17 -34 -19 -34 -4 0 5 4 8 9 4 5
-3 12 -1 16 5 3 5 11 10 18 10 6 0 2 -7 -9 -15z m463 0 c0 -8 -4 -12 -9 -9 -5
3 -6 10 -3 15 9 13 12 11 12 -6z m281 -10 c-3 -3 -9 2 -12 12 -6 14 -5 15 5 6
7 -7 10 -15 7 -18z m122 0 c0 -8 -3 -16 -7 -18 -5 -3 -8 5 -8 18 0 13 3 21 8
18 4 -2 7 -10 7 -18z m38 0 c-3 -3 -9 2 -12 12 -6 14 -5 15 5 6 7 -7 10 -15 7
-18z m216 10 c-4 -8 -11 -15 -16 -15 -6 0 -5 6 2 15 7 8 14 15 16 15 2 0 1 -7
-2 -15z m41 5 c-3 -5 -1 -10 6 -10 7 0 10 -2 7 -5 -3 -3 -13 -2 -22 1 -14 5
-15 9 -4 15 17 11 20 11 13 -1z m-1115 -8 c0 -4 -10 -9 -22 -9 -18 -2 -20 0
-8 7 18 12 30 13 30 2z m120 4 c0 -3 -4 -8 -10 -11 -5 -3 -10 -1 -10 4 0 6 5
11 10 11 6 0 10 -2 10 -4z m176 -11 c-1 -8 -6 -18 -11 -22 -4 -5 -5 -2 0 6 6
11 4 13 -11 8 -18 -7 -18 -7 0 8 24 18 25 18 22 0z m87 0 c-3 -9 -8 -14 -10
-11 -3 3 -2 9 2 15 9 16 15 13 8 -4z m380 0 c-3 -9 -8 -14 -10 -11 -3 3 -2 9
2 15 9 16 15 13 8 -4z m151 0 c-4 -8 -8 -15 -10 -15 -2 0 -4 7 -4 15 0 8 4 15
10 15 5 0 7 -7 4 -15z m125 -19 c-3 -3 -11 5 -18 17 -13 21 -12 21 5 5 10 -10
16 -20 13 -22z m-945 8 c3 -8 2 -12 -4 -9 -6 3 -10 10 -10 16 0 14 7 11 14 -7z
m40 4 c-5 -8 -2 -9 9 -5 10 3 17 2 17 -3 0 -12 -27 -13 -34 -1 -3 4 -3 11 1
15 10 10 15 7 7 -6z m403 -3 c0 -8 -4 -12 -9 -9 -5 3 -6 10 -3 15 9 13 12 11
12 -6z m-66 -18 c-10 -9 -11 -8 -5 6 3 10 9 15 12 12 3 -3 0 -11 -7 -18z
m-511 3 c0 -5 -4 -10 -10 -10 -5 0 -10 5 -10 10 0 6 5 10 10 10 6 0 10 -4 10
-10z m374 -6 c3 -8 2 -13 -3 -10 -5 3 -11 -1 -15 -9 -6 -17 -26 -20 -26 -4 0
5 5 7 12 3 8 -5 9 -2 5 10 -4 10 -3 15 3 11 6 -3 10 -1 10 4 0 16 7 13 14 -5z
m163 -16 c-3 -7 -5 -2 -5 12 0 14 2 19 5 13 2 -7 2 -19 0 -25z m146 -2 c4 4 7
2 7 -4 0 -17 -20 -15 -26 3 -4 8 -10 12 -15 9 -5 -3 -6 2 -2 12 5 14 7 14 18
-5 6 -12 14 -18 18 -15z m-529 12 c-5 -8 -2 -9 10 -5 10 4 15 3 11 -3 -7 -12
-35 -13 -35 -2 0 9 10 22 17 22 2 0 1 -5 -3 -12z m136 2 c-8 -5 -22 -9 -30 -9
-10 0 -8 3 5 9 27 12 43 12 25 0z m190 -5 c-7 -9 -15 -13 -19 -10 -3 3 1 10 9
15 21 14 24 12 10 -5z m355 5 c13 -6 15 -9 5 -9 -8 0 -22 4 -30 9 -18 12 -2
12 25 0z m-1235 -22 c0 -4 -4 -8 -9 -8 -6 0 -12 4 -15 8 -3 5 1 9 9 9 8 0 15
-4 15 -9z m910 2 c-20 -13 -33 -13 -25 0 3 6 14 10 23 10 15 0 15 -2 2 -10z
m-1136 -25 c-4 -8 -10 -12 -15 -9 -11 6 -2 24 11 24 5 0 7 -7 4 -15z m86 6 c0
-5 -7 -12 -16 -15 -24 -9 -28 -7 -14 9 14 17 30 20 30 6z m654 -47 c3 -8 2
-13 -3 -9 -5 3 -11 0 -13 -7 -3 -7 -7 -5 -11 6 -4 10 -3 15 3 11 6 -3 10 -1
10 4 0 16 7 13 14 -5z m341 -48 c-5 -17 -3 -16 9 4 9 14 15 21 16 16 0 -5 6
-3 14 3 10 9 16 8 25 -3 10 -12 9 -14 -6 -11 -10 1 -27 -5 -38 -14 -28 -25
-57 -23 -78 4 -17 23 -16 24 4 20 15 -3 19 0 15 10 -4 12 -1 12 20 3 18 -8 23
-17 19 -32z m-114 17 c13 -16 12 -17 -3 -4 -10 7 -18 15 -18 17 0 8 8 3 21
-13z m-41 3 c0 -3 -4 -8 -10 -11 -5 -3 -10 -1 -10 4 0 6 5 11 10 11 6 0 10 -2
10 -4z"/>
<path d="M3065 1211 c-2 -4 -2 -23 0 -44 4 -35 -3 -46 -19 -30 -3 4 -13 8 -22
9 -12 2 -13 -1 -3 -12 6 -7 9 -21 5 -29 -4 -11 -2 -14 6 -9 7 4 8 3 4 -5 -4
-6 -2 -18 4 -26 9 -11 9 -15 1 -15 -6 0 -11 -5 -11 -11 0 -8 4 -8 13 -1 8 7
18 6 31 -4 11 -8 14 -14 7 -14 -7 0 -9 -4 -6 -10 3 -5 0 -7 -8 -4 -8 3 -14 -2
-14 -11 0 -19 11 -19 31 1 22 21 20 29 -10 53 -18 14 -25 27 -21 41 3 11 2 18
-2 15 -4 -2 -8 3 -8 12 0 13 4 12 18 -5 14 -18 19 -19 28 -8 9 11 9 16 0 22
-8 5 -9 3 -4 -6 5 -9 4 -11 -4 -6 -17 11 -3 26 17 19 15 -6 15 -5 3 10 -7 9
-18 14 -25 10 -6 -4 -5 0 2 9 9 11 10 18 2 23 -5 3 -10 11 -10 17 0 6 9 -1 21
-15 19 -26 40 -30 66 -14 14 9 27 -9 18 -24 -4 -5 -12 -8 -18 -6 -7 2 -18 -3
-25 -12 -11 -14 -11 -14 -6 2 3 9 2 17 -3 17 -5 0 -9 -9 -10 -20 -1 -16 3 -20
16 -15 10 3 24 -1 30 -9 10 -12 16 -13 26 -3 9 8 10 16 3 24 -11 14 -1 36 13
28 5 -4 9 -2 9 3 0 11 -50 35 -58 27 -3 -3 -14 3 -24 12 -19 17 -56 25 -63 14z
m62 -37 c-9 -10 -38 16 -31 28 4 6 13 4 22 -6 9 -8 13 -19 9 -22z m48 -54 c3
-6 -1 -7 -9 -4 -18 7 -21 14 -7 14 6 0 13 -4 16 -10z"/>
<path d="M3155 1160 c-3 -5 -1 -10 4 -10 6 0 11 5 11 10 0 6 -2 10 -4 10 -3 0
-8 -4 -11 -10z"/>
<path d="M2967 1096 c3 -12 5 -31 4 -43 -1 -25 9 -29 27 -11 17 17 15 33 -2
19 -11 -10 -14 -9 -12 3 3 24 12 28 26 11 11 -13 10 -19 -4 -34 -10 -11 -13
-22 -8 -25 6 -3 13 0 15 6 4 8 8 4 12 -9 4 -13 12 -23 17 -23 5 0 6 5 3 10 -3
6 1 13 9 16 9 3 13 10 10 16 -3 5 -11 5 -19 -2 -15 -12 -31 3 -20 20 10 16
-21 63 -43 65 -16 1 -19 -3 -15 -19z"/>
<path d="M2953 1038 c2 -7 -2 -20 -10 -30 -19 -21 0 -33 20 -13 17 17 31 20
22 6 -3 -5 -1 -12 5 -16 6 -4 8 -9 6 -13 -8 -13 19 -37 41 -38 13 -1 21 1 19
5 -2 3 2 12 10 19 9 8 14 9 14 2 0 -6 5 -8 10 -5 6 4 7 11 4 17 -4 7 -2 8 5 4
9 -6 9 -11 0 -22 -6 -7 -15 -11 -20 -8 -5 3 -9 1 -9 -5 0 -5 5 -13 10 -16 8
-5 8 -11 1 -19 -14 -16 -4 -26 17 -19 12 5 14 2 9 -11 -4 -11 -3 -15 4 -11 6
4 8 14 5 22 -3 8 -2 11 3 8 5 -3 12 -1 16 5 3 5 1 10 -6 10 -7 0 -9 3 -6 7 4
3 2 12 -5 20 -8 10 -8 17 0 25 7 7 12 15 12 19 0 11 -50 3 -62 -9 -8 -8 -17
-5 -34 13 -12 13 -24 22 -26 19 -3 -2 -17 7 -32 21 -16 14 -26 20 -23 13z m17
-22 c0 -2 -8 -10 -17 -17 -16 -13 -17 -12 -4 4 13 16 21 21 21 13z m80 -61 c0
-2 -5 -7 -10 -10 -6 -4 -9 -1 -8 6 2 6 -3 14 -11 17 -9 3 -11 0 -6 -9 5 -8 4
-11 -1 -6 -5 5 -9 12 -9 15 0 4 -4 14 -9 21 -5 8 5 5 22 -8 18 -12 32 -24 32
-26z m64 -24 c3 -4 -4 -17 -16 -27 -13 -12 -18 -13 -12 -4 5 8 9 18 10 23 3
15 4 17 8 17 3 0 7 -4 10 -9z"/>
<path d="M3151 944 c-6 -15 -9 -29 -6 -32 2 -3 0 -11 -7 -19 -6 -7 -8 -16 -4
-20 3 -3 6 0 6 8 0 11 2 11 10 -1 5 -8 23 -16 40 -16 53 -2 57 -4 86 -26 37
-29 57 -33 41 -7 -15 25 -4 33 25 18 12 -6 20 -8 16 -4 -4 5 -4 13 2 20 6 7 3
16 -8 26 -21 17 -54 21 -49 5 2 -6 11 -11 20 -11 9 0 17 -5 17 -10 0 -6 -11
-9 -25 -9 -13 1 -22 -2 -20 -7 3 -4 0 -11 -6 -15 -7 -4 -9 -3 -5 4 3 6 1 14
-5 18 -8 5 -9 3 -4 -6 5 -9 4 -11 -4 -6 -6 4 -8 12 -5 18 5 8 1 9 -10 5 -10
-4 -15 -3 -11 3 3 6 -1 10 -10 10 -10 0 -13 -5 -9 -12 5 -8 1 -7 -10 1 -16 14
-17 16 -1 27 9 7 12 15 6 18 -5 4 -16 -3 -24 -15 -18 -25 -28 -13 -22 30 4 38
-7 40 -24 5z m24 -54 c4 -6 10 -8 15 -5 5 3 11 2 14 -3 2 -4 -6 -8 -19 -8 -13
0 -22 3 -19 7 2 4 -2 10 -8 12 -9 4 -10 6 -1 6 6 1 15 -4 18 -9z"/>
<path d="M3237 943 c-12 -11 -7 -24 6 -17 9 6 9 5 0 -8 -11 -12 -8 -17 15 -28
46 -22 54 -20 33 9 -26 36 -46 52 -54 44z m44 -50 c13 -17 13 -17 -6 -3 -11 8
-22 16 -24 17 -2 2 0 3 6 3 6 0 17 -8 24 -17z"/>
<path d="M3388 928 c9 -9 15 -9 24 0 9 9 7 12 -12 12 -19 0 -21 -3 -12 -12z"/>
<path d="M3573 882 c-3 -10 -8 -20 -9 -23 -2 -4 4 -13 13 -20 14 -12 15 -11
10 11 -4 14 -4 19 -1 13 9 -19 27 -16 20 3 -6 15 -4 15 10 3 10 -8 12 -15 5
-17 -6 -2 -8 -9 -5 -14 4 -6 2 -8 -4 -4 -6 3 -13 2 -17 -4 -3 -5 -1 -10 5 -10
6 0 8 -5 5 -10 -4 -6 -14 -1 -25 12 -17 21 -19 22 -25 5 -6 -14 -10 -15 -21
-6 -8 6 -11 15 -8 20 3 5 0 9 -6 9 -7 0 -10 -6 -7 -13 3 -8 -1 -14 -8 -14 -9
0 -11 6 -6 16 9 17 4 41 -8 41 -5 0 -7 -11 -6 -25 2 -14 -1 -23 -6 -19 -5 3
-7 11 -3 17 3 7 -4 1 -15 -13 -19 -23 -22 -23 -34 -9 -11 15 -14 14 -32 -10
-13 -18 -14 -22 -3 -13 12 9 18 10 23 2 5 -8 14 -6 32 5 17 12 28 13 37 6 7
-6 16 -8 19 -4 4 3 10 -2 13 -11 5 -13 9 -14 14 -6 5 9 10 6 15 -9 8 -27 20
-27 22 1 2 18 0 20 -7 8 -6 -9 -10 -10 -10 -3 0 16 17 26 25 13 3 -5 15 -15
27 -21 12 -6 18 -7 14 -1 -3 5 1 23 9 38 8 16 15 23 15 15 0 -8 3 -12 6 -8 11
10 -30 62 -49 64 -10 0 -21 -6 -24 -15z"/>
<path d="M3510 869 c0 -5 5 -7 10 -4 6 3 10 8 10 11 0 2 -4 4 -10 4 -5 0 -10
-5 -10 -11z"/>
<path d="M3005 1189 c-4 -6 -5 -12 -2 -15 2 -3 7 2 10 11 7 17 1 20 -8 4z"/>
<path d="M2893 1136 c3 -7 0 -19 -6 -26 -7 -7 0 -5 14 6 18 13 23 21 15 26
-18 12 -29 9 -23 -6z"/>
<path d="M2923 1065 c0 -8 4 -12 9 -9 5 3 6 10 3 15 -9 13 -12 11 -12 -6z"/>
<path d="M2904 968 c-4 -6 0 -16 9 -23 9 -7 14 -15 10 -19 -4 -4 1 -4 11 0 14
5 17 4 12 -4 -4 -7 3 -16 18 -23 14 -7 23 -16 19 -22 -3 -6 -1 -7 5 -3 8 5 8
14 0 32 -7 15 -14 21 -16 15 -5 -15 -23 -14 -19 1 1 7 -8 17 -20 23 -13 5 -23
13 -23 18 0 4 5 5 12 1 7 -4 8 -3 4 4 -9 15 -13 15 -22 0z"/>
<path d="M5415 1190 c-3 -6 -11 -8 -16 -5 -5 3 -18 -9 -30 -27 -17 -28 -19
-29 -14 -8 7 24 7 24 -8 5 -19 -24 -5 -44 18 -25 15 13 30 7 30 -11 0 -5 3 -9
8 -9 4 0 12 0 19 0 6 0 4 6 -5 13 -16 11 -15 12 9 14 21 1 24 -1 13 -9 -11 -8
-10 -9 4 -4 9 3 17 1 17 -4 0 -6 -7 -10 -16 -10 -8 0 -12 -5 -9 -10 4 -6 11
-8 16 -5 5 4 12 -1 15 -10 6 -13 8 -14 15 -3 6 9 9 9 9 1 0 -6 -5 -15 -10 -18
-6 -4 -7 -11 -4 -17 5 -7 2 -8 -6 -3 -9 5 -11 4 -6 -4 4 -6 4 -11 -1 -10 -19
3 -33 -2 -33 -12 0 -8 4 -8 14 0 9 7 17 8 20 2 5 -8 27 -8 46 -1 3 1 8 2 12 1
10 -1 3 28 -10 41 -13 13 -16 29 -4 27 21 -4 23 3 7 21 -22 24 -40 26 -31 3 4
-9 -6 -3 -22 13 -25 27 -26 31 -12 49 8 11 11 17 6 13 -5 -4 -15 -3 -22 3 -8
7 -14 7 -19 -1z m16 -24 c-6 -7 -9 -16 -6 -20 3 -3 -1 -2 -7 4 -16 14 -31 13
-22 -2 4 -7 3 -8 -4 -4 -18 11 -15 20 11 32 27 12 42 7 28 -10z m78 -59 c8
-10 7 -14 -2 -14 -8 0 -14 6 -14 14 0 7 1 13 2 13 2 0 8 -6 14 -13z m2 -70
c-15 -15 -43 -18 -34 -4 4 7 8 15 9 20 1 4 2 10 3 13 0 4 8 1 16 -6 11 -9 13
-16 6 -23z"/>
<path d="M5493 1045 c0 -8 4 -12 9 -9 5 3 6 10 3 15 -9 13 -12 11 -12 -6z"/>
<path d="M5405 1092 c-13 -8 -15 -72 -2 -72 4 0 5 -6 0 -12 -4 -7 -8 -17 -8
-23 0 -5 -8 -9 -17 -9 -10 1 -14 -4 -11 -12 6 -15 23 -19 23 -5 0 5 7 12 16
15 13 5 14 4 5 -7 -8 -11 -6 -18 9 -32 11 -10 23 -15 27 -12 3 4 0 7 -7 7 -7
0 -10 3 -7 7 4 3 2 12 -4 19 -7 9 -6 16 4 26 12 11 12 14 -2 25 -14 11 -13 15
14 37 17 14 24 25 17 26 -7 0 -10 5 -6 12 4 6 3 8 -4 4 -6 -3 -13 -2 -17 4 -7
12 -16 12 -30 2z m29 -23 c11 2 7 -9 -8 -24 -12 -13 -15 -13 -20 1 -4 9 -2 12
5 8 8 -4 9 1 4 17 -4 16 -3 20 3 11 5 -8 12 -13 16 -13z m-10 -67 c3 -5 -1 -9
-9 -9 -8 0 -12 4 -9 9 3 4 7 8 9 8 2 0 6 -4 9 -8z"/>
<path d="M5310 955 c-10 -13 -10 -19 4 -33 9 -10 13 -22 9 -27 -5 -4 -2 -5 5
-1 11 6 10 12 -2 31 -12 18 -12 25 -3 28 6 2 9 7 6 11 -3 4 -12 0 -19 -9z"/>
<path d="M5064 884 c5 -15 2 -24 -9 -28 -9 -3 -14 -10 -11 -15 3 -5 0 -14 -8
-20 -11 -9 -15 -8 -21 6 -6 16 -8 17 -18 2 -7 -9 -16 -17 -22 -17 -5 -1 -10
-8 -10 -14 0 -7 6 -12 13 -10 6 1 12 -2 12 -8 0 -5 5 -10 10 -10 6 0 9 3 9 8
-5 27 1 34 18 21 11 -10 14 -10 9 -1 -4 6 -2 12 3 12 6 0 11 -6 11 -12 0 -9 4
-8 10 2 9 13 10 13 10 0 0 -13 1 -13 10 0 12 20 70 20 94 1 11 -9 16 -10 12
-3 -5 8 -1 12 11 12 17 1 17 1 0 11 -9 5 -22 7 -29 3 -7 -4 -8 -3 -4 5 4 6 18
9 31 7 34 -6 38 4 13 31 -21 22 -45 32 -34 14 3 -5 -1 -14 -9 -21 -8 -7 -15
-9 -15 -4 0 4 -10 -2 -23 -14 -22 -21 -23 -21 -39 -3 -10 12 -13 22 -7 28 6 6
4 15 -7 24 -15 12 -16 12 -10 -7z m146 -29 c10 -12 8 -13 -11 -10 -12 3 -29
-1 -37 -7 -8 -7 -21 -13 -29 -14 -11 -2 -12 1 -2 12 6 8 14 12 17 10 2 -3 14
1 26 9 25 18 21 18 36 0z m-132 -31 c-4 -11 -28 -14 -28 -4 0 8 22 20 28 14 2
-1 2 -6 0 -10z"/>
<path d="M5235 880 c3 -5 8 -10 11 -10 2 0 4 5 4 10 0 6 -5 10 -11 10 -5 0 -7
-4 -4 -10z"/>
<path d="M4750 840 c0 -6 -13 -8 -29 -5 -31 5 -67 -18 -56 -36 7 -11 25 -12
24 -1 -4 22 2 32 14 25 6 -4 18 -8 25 -9 19 -3 27 -13 18 -21 -4 -4 -10 -3
-14 2 -4 6 -16 12 -27 14 -19 3 -19 2 -2 -17 12 -13 15 -22 8 -27 -11 -6 -15
1 -12 19 1 5 -5 3 -14 -4 -18 -15 -10 -27 20 -32 12 -2 20 3 20 11 0 24 23 24
35 1 l12 -22 27 26 c33 31 41 33 36 6 -4 -20 -3 -20 25 2 30 24 37 38 20 38
-5 0 -10 -5 -10 -11 0 -6 -5 -7 -12 -2 -7 4 -17 8 -23 8 -5 0 -9 8 -9 18 2 13
-1 15 -10 7 -7 -5 -16 -7 -19 -3 -4 3 -7 3 -7 -2 0 -4 8 -14 18 -22 12 -9 13
-13 2 -11 -8 2 -14 -1 -15 -7 0 -5 -4 -16 -9 -23 -13 -22 -33 16 -29 54 2 19
1 34 -2 34 -3 0 -5 -5 -5 -10z m105 -49 c3 -5 2 -12 -3 -15 -5 -3 -9 1 -9 9 0
17 3 19 12 6z"/>
<path d="M4907 815 c-4 -8 -2 -17 4 -20 5 -4 7 -10 4 -15 -3 -5 -2 -11 3 -14
4 -2 8 11 8 30 0 35 -10 45 -19 19z"/>
<path d="M4575 800 c-3 -5 -2 -10 4 -10 5 0 8 -11 7 -24 -2 -18 1 -23 12 -18
11 4 14 1 10 -9 -4 -10 1 -15 13 -15 10 0 16 2 14 5 -3 2 3 13 12 24 10 11 13
17 6 14 -6 -4 -15 -3 -18 3 -5 8 -11 7 -21 -1 -12 -9 -13 -9 -9 3 7 18 -20 44
-30 28z m59 -51 c-3 -5 -10 -7 -15 -3 -5 3 -7 10 -3 15 3 5 10 7 15 3 5 -3 7
-10 3 -15z"/>
<path d="M4426 718 c3 -5 10 -6 15 -3 13 9 11 12 -6 12 -8 0 -12 -4 -9 -9z"/>
<path d="M5496 971 c-4 -5 -2 -12 3 -15 5 -4 12 -2 15 3 4 5 2 12 -3 15 -5 4
-12 2 -15 -3z"/>
<path d="M4196 714 c-4 -9 -4 -19 -1 -22 2 -3 7 3 11 12 4 9 4 19 1 22 -2 3
-7 -3 -11 -12z"/>
<path d="M2815 1339 c-3 -4 2 -6 10 -5 21 3 28 13 10 13 -9 0 -18 -4 -20 -8z"/>
<path d="M2635 1329 c-4 -6 -5 -12 -2 -15 2 -3 7 2 10 11 7 17 1 20 -8 4z"/>
<path d="M2854 1318 c-4 -7 -3 -10 1 -5 5 4 18 -1 29 -10 21 -18 21 -18 2 5
-22 26 -23 26 -32 10z"/>
<path d="M5679 1273 c-13 -16 -12 -17 4 -4 9 7 17 15 17 17 0 8 -8 3 -21 -13z"/>
<path d="M2940 1271 c0 -7 -5 -9 -12 -5 -7 5 -8 3 -3 -5 5 -9 10 -10 18 -2 6
6 8 14 4 18 -4 3 -7 1 -7 -6z"/>
<path d="M2653 1249 c-2 -23 3 -25 10 -4 4 8 3 16 -1 19 -4 3 -9 -4 -9 -15z"/>
<path d="M2695 1260 c-3 -5 -1 -10 4 -10 6 0 11 5 11 10 0 6 -2 10 -4 10 -3 0
-8 -4 -11 -10z"/>
<path d="M2773 1246 c0 -15 22 -15 34 0 4 5 4 6 -1 2 -5 -4 -14 -3 -21 2 -8 7
-12 5 -12 -4z"/>
<path d="M2827 1242 c1 -8 3 -16 3 -18 0 -2 4 -4 8 -4 5 0 9 7 9 15 0 8 -4 12
-8 9 -4 -2 -9 -1 -12 3 -2 5 -2 2 0 -5z"/>
<path d="M2901 1240 c-9 -5 -4 -7 13 -7 29 0 32 2 13 10 -8 3 -20 2 -26 -3z"/>
<path d="M5590 1241 c0 -6 4 -13 10 -16 6 -3 7 1 4 9 -7 18 -14 21 -14 7z"/>
<path d="M5614 1242 c4 -3 14 -7 22 -8 9 -1 13 0 10 4 -4 3 -14 7 -22 8 -9 1
-13 0 -10 -4z"/>
<path d="M2615 1220 c-3 -5 -1 -10 4 -10 6 0 11 5 11 10 0 6 -2 10 -4 10 -3 0
-8 -4 -11 -10z"/>
<path d="M5537 1224 c-10 -11 16 -55 31 -52 8 2 17 14 19 28 2 18 1 21 -6 10
-5 -8 -7 -18 -5 -22 3 -4 1 -8 -5 -8 -6 0 -15 10 -22 22 -10 18 -9 20 5 15 9
-4 16 -2 16 3 0 11 -23 14 -33 4z"/>
<path d="M2693 1193 c0 -9 4 -10 12 -3 7 5 15 7 18 3 4 -3 7 -1 7 5 0 6 -8 10
-18 9 -10 0 -19 -7 -19 -14z"/>
<path d="M2810 1200 c0 -5 5 -10 10 -10 6 0 10 5 10 10 0 6 -4 10 -10 10 -5 0
-10 -4 -10 -10z"/>
<path d="M5601 1194 c0 -11 3 -14 6 -6 3 7 2 16 -1 19 -3 4 -6 -2 -5 -13z"/>
<path d="M5646 1202 c-3 -5 1 -9 9 -9 8 0 15 4 15 9 0 4 -4 8 -9 8 -6 0 -12
-4 -15 -8z"/>
<path d="M5795 1200 c3 -5 8 -10 11 -10 2 0 4 5 4 10 0 6 -5 10 -11 10 -5 0
-7 -4 -4 -10z"/>
<path d="M5839 1193 c-13 -16 -12 -17 4 -4 16 13 21 21 13 21 -2 0 -10 -8 -17
-17z"/>
<path d="M2576 1182 c-3 -5 1 -9 9 -9 8 0 12 4 9 9 -3 4 -7 8 -9 8 -2 0 -6 -4
-9 -8z"/>
<path d="M5706 1182 c-2 -4 4 -8 14 -8 10 0 16 4 14 8 -3 4 -9 8 -14 8 -5 0
-11 -4 -14 -8z"/>
<path d="M2655 1169 c-4 -6 -5 -12 -2 -15 2 -3 7 2 10 11 7 17 1 20 -8 4z"/>
<path d="M2756 1165 c4 -8 8 -15 10 -15 2 0 4 7 4 15 0 8 -4 15 -10 15 -5 0
-7 -7 -4 -15z"/>
<path d="M2790 1170 c0 -5 5 -10 10 -10 6 0 10 5 10 10 0 6 -4 10 -10 10 -5 0
-10 -4 -10 -10z"/>
<path d="M5660 1171 c0 -10 19 -25 25 -20 1 2 -3 10 -11 17 -8 7 -14 8 -14 3z"/>
<path d="M2677 1152 c-16 -18 -16 -19 3 -17 11 1 23 5 27 10 5 4 2 4 -6 0 -11
-6 -13 -4 -8 8 8 22 4 21 -16 -1z"/>
<path d="M5610 1165 c0 -7 30 -13 34 -7 3 4 -4 9 -15 9 -10 1 -19 0 -19 -2z"/>
<path d="M2736 1143 c-6 -14 -5 -15 5 -6 7 7 10 15 7 18 -3 3 -9 -2 -12 -12z"/>
<path d="M2515 1139 c-3 -4 2 -6 10 -5 21 3 28 13 10 13 -9 0 -18 -4 -20 -8z"/>
<path d="M2775 1140 c-3 -5 2 -21 11 -35 18 -28 26 -33 18 -10 -4 11 -2 13 9
9 8 -3 18 -1 22 5 4 7 0 8 -11 4 -10 -4 -15 -2 -11 3 3 6 -3 15 -13 22 -12 7
-21 8 -25 2z m25 -21 c0 -6 -4 -7 -10 -4 -5 3 -10 11 -10 16 0 6 5 7 10 4 6
-3 10 -11 10 -16z"/>
<path d="M5747 1139 c7 -7 15 -10 18 -7 3 3 -2 9 -12 12 -14 6 -15 5 -6 -5z"/>
<path d="M5810 1140 c0 -5 5 -10 11 -10 5 0 7 5 4 10 -3 6 -8 10 -11 10 -2 0
-4 -4 -4 -10z"/>
<path d="M2610 1121 c0 -6 4 -12 8 -15 5 -3 9 1 9 9 0 8 -4 15 -9 15 -4 0 -8
-4 -8 -9z"/>
<path d="M2713 1115 c0 -8 4 -15 9 -15 4 0 8 4 8 9 0 6 -4 12 -8 15 -5 3 -9
-1 -9 -9z"/>
<path d="M2493 1105 c0 -8 4 -12 9 -9 5 3 6 10 3 15 -9 13 -12 11 -12 -6z"/>
<path d="M2677 1109 c7 -7 15 -10 18 -7 3 3 -2 9 -12 12 -14 6 -15 5 -6 -5z"/>
<path d="M5755 1111 c-3 -5 -2 -12 3 -15 5 -3 9 1 9 9 0 17 -3 19 -12 6z"/>
<path d="M5793 1105 c0 -8 4 -12 9 -9 5 3 6 10 3 15 -9 13 -12 11 -12 -6z"/>
<path d="M5659 1106 c-9 -6 -3 -49 7 -53 8 -3 11 -9 8 -14 -3 -5 0 -9 5 -9 15
0 14 20 -2 26 -7 2 -13 14 -14 25 -1 16 1 18 11 10 9 -8 13 -7 13 2 0 11 -19
19 -28 13z"/>
<path d="M5730 1096 c0 -2 8 -10 18 -17 15 -13 16 -12 3 4 -13 16 -21 21 -21
13z"/>
<path d="M2605 1082 c7 -7 12 -8 41 -11 9 0 12 -6 8 -13 -5 -7 -3 -8 5 -3 17
10 3 23 -33 29 -16 3 -25 2 -21 -2z"/>
<path d="M2692 1074 c2 -8 8 -15 13 -16 6 -1 16 -8 23 -17 11 -14 11 -13 2 7
-6 13 -16 20 -22 16 -7 -5 -9 -1 -5 9 3 10 2 17 -4 17 -6 0 -9 -7 -7 -16z"/>
<path d="M5716 1071 c-3 -5 1 -11 9 -14 9 -4 12 -1 8 9 -6 16 -10 17 -17 5z"/>
<path d="M2493 1055 c0 -8 4 -12 9 -9 5 3 6 10 3 15 -9 13 -12 11 -12 -6z"/>
<path d="M2757 1063 c-10 -9 -9 -41 1 -47 5 -3 9 8 9 24 0 33 -1 33 -10 23z"/>
<path d="M2610 1056 c0 -2 8 -10 18 -17 15 -13 16 -12 3 4 -13 16 -21 21 -21
13z"/>
<path d="M2682 1036 c7 -8 15 -12 17 -11 5 6 -10 25 -20 25 -5 0 -4 -6 3 -14z"/>
<path d="M5760 1040 c-12 -7 -10 -9 7 -7 12 0 19 5 17 9 -6 10 -6 10 -24 -2z"/>
<path d="M2600 1031 c0 -6 4 -13 10 -16 6 -3 7 1 4 9 -7 18 -14 21 -14 7z"/>
<path d="M5635 1019 c-4 -6 -4 -13 -1 -16 3 -4 6 -1 6 6 0 7 4 10 10 6 5 -3 7
-12 4 -19 -7 -19 9 -27 26 -14 12 8 12 9 -3 4 -11 -3 -17 -1 -16 7 4 35 -11
51 -26 26z"/>
<path d="M5694 1018 c-5 -7 -2 -8 6 -3 10 6 12 4 6 -10 -5 -15 -4 -16 9 -5 19
15 19 16 0 23 -8 4 -17 1 -21 -5z"/>
<path d="M2690 1000 c0 -5 5 -10 11 -10 5 0 7 5 4 10 -3 6 -8 10 -11 10 -2 0
-4 -4 -4 -10z"/>
<path d="M5770 1001 c0 -6 4 -12 8 -15 5 -3 9 1 9 9 0 8 -4 15 -9 15 -4 0 -8
-4 -8 -9z"/>
<path d="M2639 998 c-8 -27 -5 -36 9 -30 10 4 12 7 4 10 -7 2 -10 8 -6 13 3 5
3 9 0 9 -3 0 -6 -1 -7 -2z"/>
<path d="M2556 982 c-2 -4 -1 -14 4 -22 7 -11 9 -9 7 8 -1 24 -3 26 -11 14z"/>
<path d="M2593 969 c-1 -10 3 -22 9 -25 7 -4 8 -2 4 5 -4 6 -3 18 3 25 8 9 7
13 -2 13 -7 0 -14 -8 -14 -18z"/>
<path d="M5630 981 c0 -6 4 -13 10 -16 6 -3 7 1 4 9 -7 18 -14 21 -14 7z"/>
<path d="M2673 965 c0 -8 4 -15 9 -15 4 0 8 4 8 9 0 6 -4 12 -8 15 -5 3 -9 -1
-9 -9z"/>
<path d="M5571 945 c-19 -13 -39 -21 -44 -18 -6 3 -7 1 -3 -6 4 -6 2 -19 -6
-28 -12 -15 -11 -15 9 -3 12 8 19 18 16 24 -4 6 1 7 13 2 10 -4 15 -4 12 0 -4
4 3 15 16 25 28 22 37 24 34 7 -2 -6 5 -14 15 -16 9 -2 17 1 17 7 0 6 -7 8
-15 4 -10 -3 -15 -1 -13 7 5 22 -16 20 -51 -5z"/>
<path d="M2626 942 c-3 -5 1 -9 9 -9 8 0 12 4 9 9 -3 4 -7 8 -9 8 -2 0 -6 -4
-9 -8z"/>
<path d="M2751 945 c1 -19 18 -51 18 -35 0 8 -4 22 -9 30 -5 8 -9 11 -9 5z"/>
<path d="M2707 926 c-4 -10 1 -12 14 -9 23 6 24 9 5 16 -8 3 -17 0 -19 -7z"/>
<path d="M5834 929 c-3 -6 -2 -15 3 -20 5 -5 9 -1 9 11 0 23 -2 24 -12 9z"/>
<path d="M2550 922 c0 -5 7 -9 15 -9 8 0 12 4 9 9 -3 4 -9 8 -15 8 -5 0 -9 -4
-9 -8z"/>
<path d="M5593 923 c4 -3 0 -11 -8 -17 -11 -8 -12 -15 -4 -26 9 -13 10 -13 6
2 -3 9 1 19 9 22 17 6 19 26 2 26 -6 0 -8 -3 -5 -7z"/>
<path d="M5676 914 c-8 -20 -8 -24 2 -24 4 0 8 9 9 20 2 24 -3 26 -11 4z"/>
<path d="M5726 918 c3 -5 10 -6 15 -3 13 9 11 12 -6 12 -8 0 -12 -4 -9 -9z"/>
<path d="M2675 901 c-3 -5 -2 -12 3 -15 5 -3 9 1 9 9 0 17 -3 19 -12 6z"/>
<path d="M2866 894 c-11 -7 -17 -17 -13 -20 3 -4 14 1 23 10 21 22 15 28 -10
10z"/>
<path d="M2730 886 c0 -2 7 -7 16 -10 8 -3 12 -2 9 4 -6 10 -25 14 -25 6z"/>
<path d="M2770 880 c0 -5 5 -10 10 -10 6 0 10 5 10 10 0 6 -4 10 -10 10 -5 0
-10 -4 -10 -10z"/>
<path d="M5482 878 c0 -7 -3 -24 -7 -38 -4 -17 -1 -14 9 9 18 39 19 41 8 41
-5 0 -9 -6 -10 -12z"/>
<path d="M5535 880 c-3 -5 -2 -10 4 -10 5 0 13 5 16 10 3 6 2 10 -4 10 -5 0
-13 -4 -16 -10z"/>
<path d="M2613 865 c0 -8 4 -12 9 -9 5 3 6 10 3 15 -9 13 -12 11 -12 -6z"/>
<path d="M2876 863 c-9 -22 5 -35 24 -22 12 9 12 10 -3 5 -15 -5 -17 -2 -12
14 8 24 0 27 -9 3z"/>
<path d="M2719 853 c-13 -16 -12 -17 4 -4 16 13 21 21 13 21 -2 0 -10 -8 -17
-17z"/>
<path d="M2800 866 c0 -2 7 -7 16 -10 8 -3 12 -2 9 4 -6 10 -25 14 -25 6z"/>
<path d="M5515 861 c3 -5 0 -11 -7 -13 -7 -3 -5 -7 6 -11 9 -4 15 -3 11 2 -3
5 0 11 7 13 7 3 5 7 -6 11 -9 4 -15 3 -11 -2z"/>
<path d="M5556 861 c-3 -4 2 -16 12 -24 16 -15 18 -15 19 6 2 17 0 19 -7 7 -9
-14 -14 -7 -11 13 1 10 -7 9 -13 -2z"/>
<path d="M5766 862 c-3 -5 1 -9 9 -9 8 0 12 4 9 9 -3 4 -7 8 -9 8 -2 0 -6 -4
-9 -8z"/>
<path d="M3827 844 c6 -16 25 -14 30 2 2 5 -6 10 -16 11 -14 1 -18 -3 -14 -13z"/>
<path d="M2796 842 c-3 -5 1 -9 9 -9 8 0 12 4 9 9 -3 4 -7 8 -9 8 -2 0 -6 -4
-9 -8z"/>
<path d="M5679 833 c-13 -16 -12 -17 4 -4 16 13 21 21 13 21 -2 0 -10 -8 -17
-17z"/>
<path d="M2715 820 c3 -5 8 -10 11 -10 2 0 4 5 4 10 0 6 -5 10 -11 10 -5 0 -7
-4 -4 -10z"/>
<path d="M2833 815 c0 -8 4 -12 9 -9 4 3 8 9 8 15 0 5 -4 9 -8 9 -5 0 -9 -7
-9 -15z"/>
<path d="M3835 816 c-10 -7 -15 -17 -12 -23 3 -5 0 -10 -7 -10 -8 0 -11 8 -8
21 4 17 2 19 -8 9 -11 -10 -17 -10 -28 -1 -11 10 -17 9 -27 -5 -12 -16 -13
-16 -19 -1 -4 9 -9 14 -13 11 -6 -7 15 -37 25 -35 4 0 14 0 22 -1 13 -1 13 -2
0 -11 -8 -5 -11 -12 -7 -17 9 -8 28 17 21 28 -2 4 3 9 11 12 9 4 12 1 9 -8 -4
-10 2 -13 23 -11 15 1 34 5 41 10 7 4 19 3 26 -3 15 -13 49 -4 40 11 -3 5 -11
5 -19 -2 -10 -8 -18 -5 -33 14 -17 22 -22 23 -37 12z m-65 -16 c0 -5 -5 -10
-11 -10 -5 0 -7 5 -4 10 3 6 8 10 11 10 2 0 4 -4 4 -10z m81 -13 c-10 -9 -11
-8 -5 6 3 10 9 15 12 12 3 -3 0 -11 -7 -18z"/>
<path d="M5549 818 c7 -9 9 -23 5 -30 -6 -10 -4 -11 7 0 11 10 10 15 -6 30
-17 15 -18 15 -6 0z"/>
<path d="M2970 811 c0 -6 4 -13 10 -16 6 -3 7 1 4 9 -7 18 -14 21 -14 7z"/>
<path d="M3030 810 c0 -5 5 -10 10 -10 6 0 10 5 10 10 0 6 -4 10 -10 10 -5 0
-10 -4 -10 -10z"/>
<path d="M3999 818 c-5 -9 -5 -48 -1 -43 8 7 13 45 7 45 -3 0 -6 -1 -6 -2z"/>
<path d="M2900 800 c8 -5 20 -10 25 -10 6 0 3 5 -5 10 -8 5 -19 10 -25 10 -5
0 -3 -5 5 -10z"/>
<path d="M4490 795 c11 -13 10 -15 -2 -10 -9 4 -18 -1 -22 -11 -5 -13 -4 -14
7 -6 8 7 16 9 20 6 3 -3 13 -2 22 3 14 8 12 11 -11 22 -25 11 -26 10 -14 -4z"/>
<path d="M5270 801 c0 -6 5 -13 11 -16 6 -4 8 -14 4 -24 -5 -12 -4 -13 6 -4 9
9 9 16 1 26 -7 8 -9 17 -5 20 3 4 1 7 -5 7 -7 0 -12 -4 -12 -9z"/>
<path d="M5300 800 c0 -5 5 -10 10 -10 6 0 10 5 10 10 0 6 -4 10 -10 10 -5 0
-10 -4 -10 -10z"/>
<path d="M5334 796 c1 -8 15 -25 30 -37 l28 -22 -13 21 c-8 12 -19 22 -26 22
-7 0 -10 7 -7 15 4 8 2 15 -4 15 -6 0 -9 -7 -8 -14z"/>
<path d="M5380 800 c-8 -5 -10 -10 -5 -10 6 0 17 5 25 10 8 5 11 10 5 10 -5 0
-17 -5 -25 -10z"/>
<path d="M5435 800 c-2 -3 5 -7 16 -7 10 -1 19 2 19 6 0 9 -29 10 -35 1z"/>
<path d="M5486 802 c-3 -5 1 -9 9 -9 8 0 15 4 15 9 0 4 -4 8 -9 8 -6 0 -12 -4
-15 -8z"/>
<path d="M2695 781 c-3 -5 -2 -12 3 -15 5 -3 9 1 9 9 0 17 -3 19 -12 6z"/>
<path d="M2879 773 c-13 -16 -12 -17 4 -4 16 13 21 21 13 21 -2 0 -10 -8 -17
-17z"/>
<path d="M3003 762 c-15 -20 -17 -29 -8 -29 8 0 13 3 12 6 -1 3 4 16 11 29 17
31 10 28 -15 -6z"/>
<path d="M3055 765 c0 -13 3 -21 8 -18 4 2 7 10 7 18 0 8 -3 16 -7 18 -5 3 -8
-5 -8 -18z"/>
<path d="M4149 773 c-13 -16 -12 -17 4 -4 16 13 21 21 13 21 -2 0 -10 -8 -17
-17z"/>
<path d="M2933 766 c0 -8 5 -14 11 -13 6 1 10 -4 8 -11 -1 -8 2 -11 8 -7 6 4
9 9 6 13 -3 3 2 11 12 19 15 13 15 13 -4 4 -14 -7 -24 -7 -31 0 -6 6 -10 5
-10 -5z"/>
<path d="M4318 768 c-10 -6 -10 -10 1 -17 10 -6 23 -4 40 7 14 9 27 17 29 17
1 1 -11 2 -28 2 -16 0 -35 -4 -42 -9z"/>
<path d="M5228 773 c7 -3 16 -2 19 1 4 3 -2 6 -13 5 -11 0 -14 -3 -6 -6z"/>
<path d="M5262 760 c0 -14 2 -19 5 -12 2 6 2 18 0 25 -3 6 -5 1 -5 -13z"/>
<path d="M2800 760 c-9 -6 -10 -10 -3 -10 6 0 15 5 18 10 8 12 4 12 -15 0z"/>
<path d="M3095 761 c-3 -5 0 -13 6 -17 8 -4 9 -3 5 4 -11 19 5 14 21 -5 13
-16 13 -16 3 5 -11 23 -25 28 -35 13z"/>
<path d="M3230 761 c0 -6 8 -7 18 -4 15 6 15 5 3 -10 -12 -15 -12 -17 3 -11 9
4 15 12 13 18 -5 14 -37 21 -37 7z"/>
<path d="M4230 760 c0 -5 5 -10 10 -10 6 0 10 5 10 10 0 6 -4 10 -10 10 -5 0
-10 -4 -10 -10z"/>
<path d="M4415 759 c-3 -4 2 -6 10 -5 21 3 28 13 10 13 -9 0 -18 -4 -20 -8z"/>
<path d="M5590 760 c0 -5 5 -10 11 -10 5 0 7 5 4 10 -3 6 -8 10 -11 10 -2 0
-4 -4 -4 -10z"/>
<path d="M3187 746 c-4 -10 1 -12 14 -9 23 6 24 9 5 16 -8 3 -17 0 -19 -7z"/>
<path d="M5044 745 c8 -9 13 -23 10 -33 -5 -15 -4 -15 6 1 12 19 -1 47 -22 47
-5 0 -3 -7 6 -15z"/>
<path d="M2895 740 c3 -5 8 -10 11 -10 2 0 4 5 4 10 0 6 -5 10 -11 10 -5 0 -7
-4 -4 -10z"/>
<path d="M3289 725 c-10 -20 -10 -20 6 0 9 11 18 19 21 17 2 -2 10 -1 17 1 6
3 2 4 -11 4 -13 -1 -28 -11 -33 -22z"/>
<path d="M5150 741 c0 -6 4 -13 10 -16 6 -3 7 1 4 9 -7 18 -14 21 -14 7z"/>
<path d="M5530 740 c0 -5 5 -10 11 -10 5 0 7 5 4 10 -3 6 -8 10 -11 10 -2 0
-4 -4 -4 -10z"/>
<path d="M3470 725 c0 -8 4 -15 10 -15 5 0 7 7 4 15 -4 8 -8 15 -10 15 -2 0
-4 -7 -4 -15z"/>
<path d="M3070 725 c0 -7 30 -13 34 -7 3 4 -4 9 -15 9 -10 1 -19 0 -19 -2z"/>
<path d="M3225 716 c17 -12 18 -16 5 -32 -13 -18 -13 -18 5 -2 15 14 16 20 5
32 -7 9 -17 16 -23 16 -6 0 -2 -6 8 -14z"/>
<path d="M3317 712 c-14 -15 -15 -19 -2 -19 8 0 12 4 9 8 -2 4 2 9 8 12 7 2
10 7 7 11 -3 3 -13 -2 -22 -12z"/>
<path d="M3416 722 c-3 -5 1 -9 9 -9 8 0 15 4 15 9 0 4 -4 8 -9 8 -6 0 -12 -4
-15 -8z"/>
<path d="M3820 723 c0 -9 52 -35 58 -29 2 3 -10 12 -27 21 -17 8 -31 12 -31 8z"/>
<path d="M3750 710 c0 -5 5 -10 11 -10 5 0 7 5 4 10 -3 6 -8 10 -11 10 -2 0
-4 -4 -4 -10z"/>
<path d="M2896 701 c-3 -5 2 -15 12 -22 15 -12 16 -12 5 2 -7 9 -10 19 -6 22
3 4 4 7 0 7 -3 0 -8 -4 -11 -9z"/>
<path d="M3113 693 c0 -9 4 -10 14 -2 7 6 13 12 13 14 0 1 -6 2 -13 2 -8 0
-14 -6 -14 -14z"/>
<path d="M3190 696 c7 -7 13 -7 20 0 6 6 3 10 -10 10 -13 0 -16 -4 -10 -10z"/>
<path d="M3267 699 c7 -7 15 -10 18 -7 3 3 -2 9 -12 12 -14 6 -15 5 -6 -5z"/>
<path d="M3396 698 c5 -7 2 -9 -9 -5 -11 4 -14 2 -10 -9 4 -11 9 -12 19 -3 12
10 11 29 -2 29 -3 0 -2 -5 2 -12z"/>
<path d="M3456 697 c3 -10 9 -15 12 -12 3 3 0 11 -7 18 -10 9 -11 8 -5 -6z"/>
<path d="M3495 700 c-3 -6 1 -13 10 -16 11 -5 13 -10 5 -19 -7 -8 -6 -12 4
-12 16 0 14 29 -2 35 -7 2 -10 8 -6 13 3 5 3 9 0 9 -3 0 -8 -5 -11 -10z"/>
<path d="M3550 700 c0 -5 5 -10 10 -10 6 0 10 5 10 10 0 6 -4 10 -10 10 -5 0
-10 -4 -10 -10z"/>
<path d="M3670 701 c0 -6 4 -13 10 -16 6 -3 7 1 4 9 -7 18 -14 21 -14 7z"/>
<path d="M4790 700 c0 -6 5 -8 10 -5 6 3 10 2 10 -4 0 -5 -5 -12 -10 -14 -6
-3 -5 -4 2 -3 17 3 17 28 1 34 -7 2 -13 -1 -13 -8z"/>
<path d="M5106 702 c-2 -4 4 -8 14 -8 10 0 16 4 14 8 -3 4 -9 8 -14 8 -5 0
-11 -4 -14 -8z"/>
<path d="M5160 700 c-9 -6 -10 -10 -3 -10 6 0 15 5 18 10 8 12 4 12 -15 0z"/>
<path d="M3430 693 c5 -2 8 -9 5 -13 -3 -5 -1 -11 4 -14 5 -4 8 2 7 11 -2 9
-8 18 -15 19 -6 1 -7 0 -1 -3z"/>
<path d="M3810 685 c0 -8 2 -15 4 -15 2 0 6 7 10 15 3 8 1 15 -4 15 -6 0 -10
-7 -10 -15z"/>
<path d="M3890 696 c0 -2 7 -7 16 -10 8 -3 12 -2 9 4 -6 10 -25 14 -25 6z"/>
<path d="M3930 690 c0 -6 11 -16 25 -22 21 -9 23 -14 12 -27 -11 -14 -10 -14
6 -2 18 15 18 15 0 28 -10 7 -24 17 -30 23 -9 8 -13 8 -13 0z"/>
<path d="M4015 690 c3 -5 8 -10 11 -10 2 0 4 5 4 10 0 6 -5 10 -11 10 -5 0 -7
-4 -4 -10z"/>
<path d="M4144 684 c9 -8 14 -20 11 -25 -4 -5 -1 -9 4 -9 14 0 14 6 1 31 -6
10 -15 19 -21 19 -6 0 -3 -7 5 -16z"/>
<path d="M4655 690 c3 -5 8 -10 11 -10 2 0 4 5 4 10 0 6 -5 10 -11 10 -5 0 -7
-4 -4 -10z"/>
<path d="M4741 691 c-8 -5 -20 -7 -28 -4 -7 3 -13 0 -13 -5 0 -6 10 -8 23 -5
12 3 30 6 39 6 9 1 14 5 12 9 -7 10 -16 10 -33 -1z"/>
<path d="M4885 690 c-18 -8 -18 -9 -2 -9 12 -1 16 -6 11 -13 -4 -7 -3 -9 1 -5
7 6 17 39 12 36 -1 0 -11 -4 -22 -9z"/>
<path d="M5235 691 c-3 -5 -2 -12 3 -15 5 -3 9 1 9 9 0 17 -3 19 -12 6z"/>
<path d="M5350 696 c0 -2 8 -10 18 -17 15 -13 16 -12 3 4 -13 16 -21 21 -21
13z"/>
<path d="M3588 683 c10 -4 10 -8 0 -21 -12 -15 -11 -16 5 -3 9 7 17 17 17 22
0 5 -8 9 -17 8 -12 0 -13 -2 -5 -6z"/>
<path d="M3646 681 c-3 -5 1 -11 9 -14 9 -4 12 -1 8 9 -6 16 -10 17 -17 5z"/>
<path d="M3730 680 c0 -5 5 -10 10 -10 6 0 10 5 10 10 0 6 -4 10 -10 10 -5 0
-10 -4 -10 -10z"/>
<path d="M3760 686 c0 -2 7 -7 16 -10 8 -3 12 -2 9 4 -6 10 -25 14 -25 6z"/>
<path d="M3831 671 c-9 -17 -8 -18 11 -13 13 3 17 7 10 10 -7 2 -10 8 -6 13 3
5 3 9 0 9 -3 0 -10 -9 -15 -19z"/>
<path d="M3971 687 c2 -1 14 -10 26 -20 17 -15 23 -16 29 -5 4 7 4 10 -1 6 -4
-4 -14 -1 -22 7 -8 8 -19 15 -25 15 -6 0 -9 -1 -7 -3z"/>
<path d="M4041 678 c-1 -21 15 -32 25 -17 4 7 3 9 -4 5 -6 -3 -13 2 -15 11 -4
16 -5 16 -6 1z"/>
<path d="M4626 676 c10 -8 21 -12 24 -10 5 6 -21 24 -34 24 -6 0 -1 -6 10 -14z"/>
<path d="M4933 675 c0 -8 4 -12 9 -9 5 3 6 10 3 15 -9 13 -12 11 -12 -6z"/>
<path d="M5053 673 c0 -9 4 -10 12 -3 7 5 15 7 18 3 4 -3 7 -1 7 5 0 6 -8 10
-18 9 -10 0 -19 -7 -19 -14z"/>
<path d="M5267 679 c7 -7 15 -10 18 -7 3 3 -2 9 -12 12 -14 6 -15 5 -6 -5z"/>
<path d="M5510 680 c0 -5 5 -10 11 -10 5 0 7 5 4 10 -3 6 -8 10 -11 10 -2 0
-4 -4 -4 -10z"/>
<path d="M3471 667 c-8 -10 -7 -14 2 -14 8 0 14 6 14 14 0 7 -1 13 -2 13 -2 0
-8 -6 -14 -13z"/>
<path d="M3551 667 c-8 -10 -7 -14 2 -14 8 0 14 6 14 14 0 7 -1 13 -2 13 -2 0
-8 -6 -14 -13z"/>
<path d="M3875 670 c-3 -6 1 -7 9 -4 18 7 21 14 7 14 -6 0 -13 -4 -16 -10z"/>
<path d="M4680 671 c0 -6 4 -13 10 -16 6 -3 7 1 4 9 -7 18 -14 21 -14 7z"/>
<path d="M5173 665 c0 -8 4 -12 9 -9 5 3 6 10 3 15 -9 13 -12 11 -12 -6z"/>
<path d="M3130 659 c0 -5 5 -7 10 -4 6 3 10 8 10 11 0 2 -4 4 -10 4 -5 0 -10
-5 -10 -11z"/>
<path d="M3255 660 c3 -5 8 -10 11 -10 2 0 4 5 4 10 0 6 -5 10 -11 10 -5 0 -7
-4 -4 -10z"/>
<path d="M3756 662 c-3 -5 1 -9 9 -9 8 0 12 4 9 9 -3 4 -7 8 -9 8 -2 0 -6 -4
-9 -8z"/>
<path d="M3913 648 c-2 -18 0 -20 7 -8 12 18 13 30 2 30 -4 0 -9 -10 -9 -22z"/>
<path d="M4336 663 c-7 -8 13 -33 27 -33 6 0 2 7 -9 15 -19 15 -19 16 1 13 11
-2 24 -7 28 -13 5 -6 7 -4 5 4 -4 15 -41 25 -52 14z"/>
<path d="M4553 648 c-2 -18 0 -20 7 -8 12 18 13 30 2 30 -4 0 -9 -10 -9 -22z"/>
<path d="M4735 660 c-3 -6 1 -7 9 -4 18 7 21 14 7 14 -6 0 -13 -4 -16 -10z"/>
<path d="M4774 656 c1 -8 5 -18 8 -22 4 -3 5 1 4 10 -1 8 -5 18 -8 22 -4 3 -5
-1 -4 -10z"/>
<path d="M4815 661 c-3 -5 -2 -12 3 -15 5 -3 9 1 9 9 0 17 -3 19 -12 6z"/>
<path d="M3799 658 c-5 -18 -6 -38 -1 -34 7 8 12 36 6 36 -2 0 -4 -1 -5 -2z"/>
<path d="M4074 649 c-3 -6 -2 -15 3 -20 5 -5 9 -1 10 11 2 22 -2 25 -13 9z"/>
<path d="M4112 654 c4 -4 3 -16 -3 -28 -9 -19 -9 -19 4 -4 11 14 16 15 26 5
10 -9 11 -8 6 5 -4 9 -14 19 -23 23 -9 3 -13 3 -10 -1z"/>
<path d="M4201 644 c0 -11 3 -14 6 -6 3 7 2 16 -1 19 -3 4 -6 -2 -5 -13z"/>
<path d="M4230 650 c0 -5 7 -7 15 -4 8 4 15 8 15 10 0 2 -7 4 -15 4 -8 0 -15
-4 -15 -10z"/>
<path d="M4975 649 c-4 -6 -5 -12 -2 -15 2 -3 7 2 10 11 7 17 1 20 -8 4z"/>
<path d="M3405 640 c-3 -6 1 -7 9 -4 18 7 21 14 7 14 -6 0 -13 -4 -16 -10z"/>
<path d="M3850 641 c0 -6 4 -12 8 -15 5 -3 9 1 9 9 0 8 -4 15 -9 15 -4 0 -8
-4 -8 -9z"/>
<path d="M4436 642 c-3 -5 1 -9 9 -9 8 0 12 4 9 9 -3 4 -7 8 -9 8 -2 0 -6 -4
-9 -8z"/>
<path d="M4597 635 c-4 -8 -3 -16 1 -19 4 -3 9 4 9 15 2 23 -3 25 -10 4z"/>
<path d="M4650 642 c0 -5 7 -9 15 -9 8 0 12 4 9 9 -3 4 -9 8 -15 8 -5 0 -9 -4
-9 -8z"/>
<path d="M4873 633 c0 -9 4 -10 14 -2 7 6 13 12 13 14 0 1 -6 2 -13 2 -8 0
-14 -6 -14 -14z"/>
<path d="M4910 638 c0 -4 4 -8 9 -8 6 0 12 4 15 8 3 5 -1 9 -9 9 -8 0 -15 -4
-15 -9z"/>
<path d="M5075 639 c-3 -4 2 -6 10 -5 21 3 28 13 10 13 -9 0 -18 -4 -20 -8z"/>
<path d="M3450 620 c0 -5 5 -10 11 -10 5 0 7 5 4 10 -3 6 -8 10 -11 10 -2 0
-4 -4 -4 -10z"/>
<path d="M3760 620 c-9 -6 -10 -10 -3 -10 6 0 15 5 18 10 8 12 4 12 -15 0z"/>
<path d="M4225 619 c-3 -4 2 -6 10 -5 21 3 28 13 10 13 -9 0 -18 -4 -20 -8z"/>
<path d="M4273 607 c-1 -11 -1 -18 0 -16 2 2 8 11 15 20 9 12 9 16 -1 16 -7 0
-14 -9 -14 -20z"/>
<path d="M4310 626 c0 -2 7 -7 16 -10 8 -3 12 -2 9 4 -6 10 -25 14 -25 6z"/>
<path d="M4386 622 c-3 -5 1 -9 9 -9 8 0 15 4 15 9 0 4 -4 8 -9 8 -6 0 -12 -4
-15 -8z"/>
<path d="M4013 605 c0 -8 4 -12 9 -9 5 3 6 10 3 15 -9 13 -12 11 -12 -6z"/>
<path d="M4056 607 c3 -10 9 -15 12 -12 3 3 0 11 -7 18 -10 9 -11 8 -5 -6z"/>
<path d="M4189 603 c-13 -16 -12 -17 4 -4 16 13 21 21 13 21 -2 0 -10 -8 -17
-17z"/>
<path d="M4450 616 c0 -2 8 -10 18 -17 15 -13 16 -12 3 4 -13 16 -21 21 -21
13z"/>
<path d="M3556 593 c-6 -14 -5 -15 5 -6 7 7 10 15 7 18 -3 3 -9 -2 -12 -12z"/>
<path d="M3720 595 c-7 -9 -11 -17 -9 -20 3 -2 10 5 17 15 14 24 10 26 -8 5z"/>
<path d="M4146 598 c3 -5 10 -6 15 -3 13 9 11 12 -6 12 -8 0 -12 -4 -9 -9z"/>
<path d="M4910 601 c0 -6 4 -13 10 -16 6 -3 7 1 4 9 -7 18 -14 21 -14 7z"/>
<path d="M3636 587 c3 -10 9 -15 12 -12 3 3 0 11 -7 18 -10 9 -11 8 -5 -6z"/>
<path d="M3976 587 c3 -10 9 -15 12 -12 3 3 0 11 -7 18 -10 9 -11 8 -5 -6z"/>
<path d="M4375 591 c-3 -5 -2 -12 3 -15 5 -3 9 1 9 9 0 17 -3 19 -12 6z"/>
<path d="M4535 591 c-3 -5 -2 -12 3 -15 5 -3 9 1 9 9 0 17 -3 19 -12 6z"/>
<path d="M4613 585 c0 -8 4 -12 9 -9 5 3 6 10 3 15 -9 13 -12 11 -12 -6z"/>
<path d="M3755 580 c3 -5 8 -10 11 -10 2 0 4 5 4 10 0 6 -5 10 -11 10 -5 0 -7
-4 -4 -10z"/>
<path d="M4335 580 c3 -5 8 -10 11 -10 2 0 4 5 4 10 0 6 -5 10 -11 10 -5 0 -7
-4 -4 -10z"/>
<path d="M4495 580 c3 -5 8 -10 11 -10 2 0 4 5 4 10 0 6 -5 10 -11 10 -5 0 -7
-4 -4 -10z"/>
<path d="M4646 578 c3 -5 10 -6 15 -3 13 9 11 12 -6 12 -8 0 -12 -4 -9 -9z"/>
<path d="M5315 571 c-3 -5 -2 -12 3 -15 5 -3 9 1 9 9 0 17 -3 19 -12 6z"/>
<path d="M4996 562 c-3 -5 1 -9 9 -9 8 0 12 4 9 9 -3 4 -7 8 -9 8 -2 0 -6 -4
-9 -8z"/>
</g>
</svg>
